<?xml version="1.0" encoding="utf-8"?>
<svg xmlns="http://www.w3.org/2000/svg" xmlns:xlink="http://www.w3.org/1999/xlink" version="1.1" id="BASE002" x="0px" y="0px" viewBox="0 -15 92.5951 120" enable-background="new 0 0 92.5951 92.5394" xml:space="preserve" data-colorable="mascot">
  <path id="color-1" fill="#FFFFFF" d="M13.6415,71.3811l1.386,4.0472C7.8927,67.7772,3.5078,57.5307,3.5078,46.2696  c0-11.151,4.3105-21.3367,11.3506-28.976l-0.6044,0.6908l2.7839-0.3898c0.7239,0.8909,1.392,1.7818,2.0602,2.7283  c-1.4477,0.0557-2.8953,0.167-4.343,0.2227l-0.2227,1.6147l5.5679-0.3897c0.6682,1.0022,1.2806,2.0044,1.8375,3.0067  c-1.559,0-3.1738-0.0557-4.7328-0.0557v1.559l5.5679,0.0557l1.5591,3.2294c-1.6704-0.1114-3.2851-0.2227-4.9555-0.3898  l-0.1671,1.559c1.9488,0.1671,3.8419,0.3341,5.7907,0.5012l0.8351,2.3385l0.3898,1.1136l-5.2339-0.7795l-0.167,1.559  c1.9487,0.2784,3.8975,0.5568,5.8463,0.8909c0.3341,1.1693,0.6125,2.3942,0.8352,3.6749l-5.735-1.2806l-0.0557,1.6147l6.069,1.2806  l0.0557,0.6125l0.2227,3.2294l-5.7907-1.6147l-0.334,1.559l6.1248,1.6704L27.784,50.891l-0.3897-0.1114l-4.7328-2.0601  l-0.6125,1.4477c1.8375,0.7795,3.6192,1.559,5.4566,2.3385c-0.2227,1.225-0.5011,2.5056-0.8909,3.7305l-4.343-2.7283l-0.7795,1.392  l4.6771,2.8953l-0.0557,0.2228c-0.3898,1.1136-0.7795,2.2271-1.225,3.3408c-1.2249-1.0579-2.4499-2.1158-3.6749-3.2294  l-1.0022,1.225l0.2227,0.167l3.7862,3.3408L22.55,66.3143l-2.0601-2.6169c-0.334-0.4455-0.7238-0.8909-1.0579-1.392l-0.9465,1.2806  l3.2851,4.176c-0.6682,1.1136-1.2806,2.1715-2.0045,3.1738l-2.1158-4.009l-1.392,0.6682c0.8352,1.6147,1.6703,3.1738,2.5056,4.7885  c-0.6682,1.0023-1.4476,1.9488-2.2272,2.8953l-1.4477-4.4543L13.6415,71.3811z M15.0335,75.4458l0.1443,0.1443  c-0.0505-0.0535-0.1-0.1079-0.1503-0.1617L15.0335,75.4458z M17.2603,77.6725l-2.0824-2.0824  C15.8513,76.3049,16.5397,77.0051,17.2603,77.6725z M74.4993,78.3967l-1.2806,1.1136l1.2806-3.4521  c-0.8352-1.0023-1.6147-2.0045-2.3386-3.0624l-2.2272,4.0089l-1.3363-0.7795l2.5613-4.6771l-0.6682-1.0579l-1.2806-2.1715  c-1.0022,1.2806-1.9488,2.5612-2.951,3.8419l-1.225-0.9465c1.1136-1.4477,2.2828-2.951,3.3964-4.3987  c-0.6124-1.1693-1.1136-2.2829-1.6147-3.4521c-1.2806,1.1693-2.5056,2.3942-3.7305,3.5635l-1.0579-1.1136l4.1203-4.0089  l-1.225-3.4521l-0.0557-0.1671l-4.343,3.2851l-0.9465-1.2806l4.8441-3.6192l-0.8352-3.7862l-5.0111,2.951l-0.7795-1.3363  c1.8374-1.1136,3.6749-2.1715,5.5123-3.2294l-0.1671-1.8374l-0.1113-1.1136v-0.8909L57.35,49.8889l-0.6125-1.392l6.2361-2.8953  l0.2227-2.784l0.1113-0.9465c-1.7817,0.6125-3.5078,1.2806-5.2896,1.8931l-0.5568-1.4477l6.069-2.2272l0.8352-3.6749l-4.9555,1.3363  l-0.3897-1.5034c1.9488-0.5568,3.8975-1.0579,5.8463-1.6147l1.225-3.5635l-4.7328,0.8351l-0.167-1.559  c1.8931-0.334,3.7305-0.6682,5.6236-0.9465l1.6704-3.5078c-1.5034,0.1114-3.0067,0.2227-4.5101,0.3341l0.0557-1.6147  c1.7817-0.1113,3.5635-0.2227,5.3452-0.334c0.6682-1.1136,1.3363-2.2272,2.0601-3.2851l-4.4543-0.2227l0.1113-1.559l5.3453,0.2227  l2.3385-3.0067l0.0557-0.1113l-4.3987-0.7795l0.2227-1.5034l4.6222,0.7703C67.6424,7.7664,57.4653,3.4522,46.3251,3.4522  c-11.5963,0-22.1244,4.6553-29.8428,12.1766l0.4996-0.4283l2.3942-2.1158l-1.2806,3.4521c0.8352,0.9465,1.6147,1.9488,2.3386,3.0067  l2.2272-4.0089l1.3363,0.7795l-2.5613,4.6771l0.6682,1.0579l1.2806,2.2272c1.0023-1.2806,2.0045-2.6169,2.951-3.8976l1.2249,0.9465  c-1.1136,1.5034-2.2272,2.951-3.3964,4.3987c0.6125,1.1693,1.1693,2.2829,1.6703,3.5078c1.225-1.2249,2.45-2.3942,3.6749-3.6191  l1.0579,1.1136l-4.1203,4.0089l1.225,3.4521l0.0557,0.1671l4.3987-3.2851l0.8909,1.2806l-4.8441,3.6191l0.8352,3.7862l5.0112-2.951  l0.7795,1.3363c-1.8374,1.1136-3.6748,2.1715-5.5123,3.2294l0.2227,1.8374l0.0557,1.1136l0.0557,0.9466l5.6236-2.617l0.6682,1.4477  l-6.2917,2.8397l-0.1671,2.784l-0.1114,1.0023c1.7261-0.6682,3.5078-1.3364,5.2339-1.9488l0.5568,1.4476l-6.0691,2.2272  l-0.8352,3.6749l4.9555-1.3363l0.3898,1.5034c-1.9488,0.5568-3.8976,1.0579-5.8464,1.6147l-1.225,3.5635l4.7328-0.8352l0.1671,1.559  c-1.8375,0.3341-3.7305,0.6682-5.6237,1.0023l-1.6703,3.4521c1.5033-0.1114,3.0067-0.2227,4.51-0.2784l-0.0557,1.559  c-1.7817,0.1113-3.5635,0.2227-5.3453,0.334c-0.6124,1.1136-1.2806,2.2272-2.0045,3.3408l4.3987,0.2228l-0.1113,1.559  l-5.3452-0.2784l-2.2829,3.0067l-0.1113,0.1113l4.3987,0.7795l-0.2227,1.559l-4.5591-0.7783  c7.6277,7.0117,17.7947,11.3018,28.9467,11.3018c11.7729,0,22.4744-4.7998,30.2343-12.5494l-0.9468,0.8567L74.4993,78.3967z   M89.143,46.2697c0-12.0834-5.0791-23.0299-13.1982-30.8337l1.6725,1.7133l1.3363,4.0646L77.506,21.715l-1.4477-4.4543  c-0.7795,0.9465-1.5034,1.9488-2.2272,2.8953c0.8352,1.6147,1.6704,3.1738,2.5056,4.7885l-1.3364,0.6682l-2.1714-4.0089  c-0.6682,1.0579-1.3364,2.1158-1.9488,3.1737l3.2294,4.176l-1.3363,0.8352l-2.7283-3.5635l-1.6704,3.4521l3.7862,3.3408  l-0.7795,1.392c-1.225-1.0579-2.4499-2.1715-3.6749-3.2294c-0.4454,1.1136-0.8352,2.2272-1.2249,3.3965l-0.0557,0.2227  l4.6771,2.8953l-0.7795,1.3363l-4.343-2.7283c-0.3897,1.2249-0.6682,2.5056-0.8909,3.7305c1.8375,0.7795,3.6749,1.559,5.4566,2.3385  l-0.6125,1.4477l-4.7327-2.0045l-0.3341-0.1671l-0.334,3.7862l6.1804,1.7261l-0.3898,1.5034l-5.7906-1.6147l0.2227,3.2294  l0.0557,0.6125l6.0691,1.2806l-0.2227,1.559l-0.8352-0.1671l-4.7328-1.0022c0.2227,1.2249,0.5012,2.4499,0.8352,3.6748  c1.9488,0.2784,3.8976,0.5568,5.902,0.8909l-0.2227,1.5033l-5.2339-0.7795l0.3898,1.1693l0.8352,2.3386  c1.9488,0.1113,3.8419,0.2784,5.7906,0.4454l-0.1671,1.559c-1.6703-0.1114-3.2851-0.2784-4.9554-0.3898l1.559,3.2294l5.5679,0.0557  v1.559c-1.559,0-3.118,0-4.7327-0.0557c0.6124,1.0023,1.1693,2.0045,1.8374,3.0067l5.5679-0.3341l-0.2227,1.559  c-1.4476,0.0557-2.8953,0.1671-4.343,0.2784c0.6682,0.8909,1.3363,1.7817,2.0601,2.6726l2.8397-0.3898l-1.0551,1.1642  C84.6411,68.0379,89.143,57.6709,89.143,46.2697z" class="color-1" data-name="color-1"/>
  <path id="color-2" fill="#B82026" d="M78.3969,74.5549l-1.0551,1.1642c-0.26,0.2736-0.5151,0.5521-0.7821,0.8188l-0.9468,0.8567  l-1.1136,1.0022l-1.2806,1.1136l1.2806-3.4521c-0.8352-1.0023-1.6147-2.0045-2.3386-3.0624l-2.2272,4.0089l-1.3363-0.7795  l2.5613-4.6771l-0.6682-1.0579l-1.2806-2.1715c-1.0022,1.2806-1.9488,2.5612-2.951,3.8419l-1.225-0.9465  c1.1136-1.4477,2.2828-2.951,3.3964-4.3987c-0.6124-1.1693-1.1136-2.2829-1.6147-3.4521c-1.2806,1.1693-2.5056,2.3942-3.7305,3.5635  l-1.0579-1.1136l4.1203-4.0089l-1.225-3.4521l-0.0557-0.1671l-4.343,3.2851l-0.9465-1.2806l4.8441-3.6192l-0.8352-3.7862  l-5.0111,2.951l-0.7795-1.3363c1.8374-1.1136,3.6749-2.1715,5.5123-3.2294l-0.1671-1.8374l-0.1113-1.1136v-0.8909L57.35,49.889  l-0.6125-1.392l6.2361-2.8953l0.2227-2.784l0.1113-0.9465c-1.7817,0.6125-3.5078,1.2806-5.2896,1.8931l-0.5568-1.4477l6.069-2.2272  l0.8352-3.6749l-4.9555,1.3363l-0.3897-1.5034c1.9488-0.5568,3.8975-1.0579,5.8463-1.6147l1.225-3.5635l-4.7328,0.8351l-0.167-1.559  c1.8931-0.334,3.7305-0.6682,5.6236-0.9465l1.6704-3.5078c-1.5034,0.1114-3.0067,0.2227-4.5101,0.3341l0.0557-1.6147  c1.7817-0.1113,3.5635-0.2227,5.3452-0.334c0.6682-1.1136,1.3363-2.2272,2.0601-3.2851l-4.4543-0.2227l0.1113-1.559l5.3453,0.2227  l2.3385-3.0067l0.0557-0.1113l-4.3987-0.7795l0.2227-1.5034l4.6222,0.7703c0.2253,0.2076,0.4443,0.4221,0.6652,0.6344l1.6725,1.7133  l1.3363,4.0646l-1.4476,0.5011l-1.4477-4.4543c-0.7795,0.9465-1.5034,1.9488-2.2272,2.8953  c0.8352,1.6147,1.6704,3.1738,2.5056,4.7885L75,25.6128l-2.1714-4.0089c-0.6682,1.0579-1.3364,2.1158-1.9488,3.1737l3.2294,4.176  l-1.3363,0.8352l-2.7283-3.5635l-1.6704,3.4521l3.7862,3.3408l-0.7795,1.392c-1.225-1.0579-2.4499-2.1715-3.6749-3.2294  c-0.4454,1.1136-0.8352,2.2272-1.2249,3.3965L66.4254,34.8l4.6771,2.8953l-0.7795,1.3363l-4.343-2.7283  c-0.3897,1.2249-0.6682,2.5056-0.8909,3.7305c1.8375,0.7795,3.6749,1.559,5.4566,2.3385L69.9332,43.82l-4.7327-2.0045  l-0.3341-0.1671l-0.334,3.7862l6.1804,1.7261l-0.3898,1.5034l-5.7906-1.6147l0.2227,3.2294l0.0557,0.6125l6.0691,1.2806  l-0.2227,1.559l-0.8352-0.1671l-4.7328-1.0022c0.2227,1.2249,0.5012,2.4499,0.8352,3.6748c1.9488,0.2784,3.8976,0.5568,5.902,0.8909  l-0.2227,1.5033l-5.2339-0.7795l0.3898,1.1693l0.8352,2.3386c1.9488,0.1113,3.8419,0.2784,5.7906,0.4454l-0.1671,1.559  c-1.6703-0.1114-3.2851-0.2784-4.9554-0.3898l1.559,3.2294l5.5679,0.0557v1.559c-1.559,0-3.118,0-4.7327-0.0557  c0.6124,1.0023,1.1693,2.0045,1.8374,3.0067l5.5679-0.3341l-0.2227,1.559c-1.4476,0.0557-2.8953,0.1671-4.343,0.2784  c0.6682,0.8909,1.3363,1.7817,2.0601,2.6726L78.3969,74.5549z M14.8585,17.2937l-0.6044,0.6908l2.7839-0.3898  c0.7239,0.8909,1.392,1.7818,2.0602,2.7283c-1.4477,0.0557-2.8953,0.167-4.343,0.2227l-0.2227,1.6147l5.5679-0.3897  c0.6682,1.0022,1.2806,2.0044,1.8375,3.0067c-1.559,0-3.1738-0.0557-4.7328-0.0557v1.559l5.5679,0.0557l1.5591,3.2294  c-1.6704-0.1114-3.2851-0.2227-4.9555-0.3898l-0.1671,1.559c1.9488,0.1671,3.8419,0.3341,5.7907,0.5012l0.8351,2.3385l0.3898,1.1136  l-5.2339-0.7795l-0.167,1.559c1.9487,0.2784,3.8975,0.5568,5.8463,0.8909c0.3341,1.1693,0.6125,2.3942,0.8352,3.6749l-5.735-1.2806  l-0.0557,1.6147l6.069,1.2806l0.0557,0.6125l0.2227,3.2294l-5.7907-1.6147l-0.334,1.559l6.1248,1.6704l-0.2784,3.7862  l-0.3897-0.1114l-4.7328-2.0601l-0.6125,1.4477c1.8375,0.7795,3.6192,1.559,5.4566,2.3385  c-0.2227,1.225-0.5011,2.5056-0.8909,3.7305l-4.343-2.7283L21.4923,54.9l4.6771,2.8953l-0.0557,0.2228  c-0.3898,1.1136-0.7795,2.2271-1.225,3.3408c-1.2249-1.0579-2.4499-2.1158-3.6749-3.2294l-1.0022,1.225l0.2227,0.167l3.7862,3.3408  l-1.6704,3.4521L20.49,63.6975c-0.334-0.4455-0.7238-0.8909-1.0579-1.392l-0.9465,1.2806l3.2851,4.176  c-0.6682,1.1136-1.2806,2.1715-2.0045,3.1738l-2.1158-4.009l-1.392,0.6682c0.8352,1.6147,1.6703,3.1738,2.5056,4.7885  c-0.6682,1.0023-1.4476,1.9488-2.2272,2.8953l-1.4477-4.4543l-1.4476,0.5568l1.392,4.0646l2.2267,2.2267  c0.04,0.0371,0.0783,0.076,0.1185,0.113l4.5591,0.7783l0.2227-1.559l-4.3987-0.7795l0.1113-0.1113l2.2829-3.0067l5.3452,0.2784  l0.1113-1.559l-4.3987-0.2228c0.7239-1.1135,1.392-2.2271,2.0045-3.3408c1.7818-0.1113,3.5635-0.2227,5.3453-0.334l0.0557-1.559  c-1.5034,0.0557-3.0067,0.167-4.51,0.2784l1.6703-3.4521c1.8931-0.3341,3.7862-0.6682,5.6237-1.0023l-0.1671-1.559l-4.7328,0.8352  l1.225-3.5635c1.9488-0.5568,3.8976-1.0579,5.8464-1.6147l-0.3898-1.5034l-4.9555,1.3363l0.8352-3.6749l6.0691-2.2272  l-0.5568-1.4476c-1.7261,0.6124-3.5078,1.2806-5.2339,1.9488l0.1114-1.0023l0.1671-2.784l6.2917-2.8397l-0.6682-1.4477  l-5.6236,2.617l-0.0557-0.9466l-0.0557-1.1136L29.2874,41.37c1.8375-1.0579,3.6749-2.1158,5.5123-3.2294l-0.7795-1.3363  l-5.0112,2.951l-0.8352-3.7862l4.8441-3.6191l-0.8909-1.2806l-4.3987,3.2851l-0.0557-0.1671l-1.225-3.4521l4.1203-4.0089  L29.51,25.6128c-1.2249,1.225-2.4499,2.3942-3.6749,3.6191c-0.5011-1.2249-1.0579-2.3385-1.6703-3.5078  c1.1693-1.4476,2.2828-2.8953,3.3964-4.3987l-1.2249-0.9465c-0.9466,1.2806-1.9488,2.6169-2.951,3.8976l-1.2806-2.2272  l-0.6682-1.0579l2.5613-4.6771l-1.3363-0.7795l-2.2272,4.0089c-0.7238-1.0579-1.5034-2.0601-2.3386-3.0067l1.2806-3.4521  l-2.3942,2.1158l-0.4996,0.4283C15.9272,16.17,15.384,16.7233,14.8585,17.2937z" class="color-2" data-name="color-2"/>
  <path id="color-3" fill="#040404" d="M46.3254,0C20.8242,0,0,20.7685,0,46.2697s20.8242,46.2697,46.3254,46.2697  s46.2697-20.7685,46.2697-46.2697S71.8267,0,46.3254,0z M44.1904,89.0333c-0.3138-0.0155-0.6239-0.0453-0.936-0.0676  c-0.3846-0.0272-0.7703-0.0502-1.152-0.0875c-0.4182-0.0411-0.832-0.097-1.2466-0.1501c-0.2648-0.0337-0.5311-0.0623-0.7943-0.1008  c-0.4921-0.0725-0.9796-0.1589-1.4661-0.2481c-0.1737-0.0316-0.3488-0.0593-0.5218-0.0931  c-0.5547-0.1088-1.1049-0.2307-1.6517-0.3608c-0.0944-0.0223-0.1896-0.0425-0.2838-0.0654c-0.6124-0.1501-1.22-0.313-1.8219-0.4893  c-0.0185-0.0054-0.0372-0.0103-0.0557-0.0157c-6.3651-1.874-12.1186-5.1909-16.8818-9.5693  c-0.0402-0.037-0.0784-0.0759-0.1185-0.113C10.9489,71.8268,6.396,64.1099,4.4944,55.4129  c-0.0102-0.0469-0.0222-0.093-0.0322-0.1399c-0.136-0.6326-0.2531-1.2721-0.3608-1.9147c-0.0176-0.1058-0.0396-0.2101-0.0564-0.3162  c-0.0944-0.5905-0.1695-1.187-0.2393-1.7852c-0.0178-0.1541-0.0422-0.306-0.0584-0.4606c-0.0609-0.5759-0.1019-1.1573-0.1396-1.7397  c-0.0112-0.1735-0.0303-0.3447-0.0394-0.5187c-0.0394-0.7513-0.0605-1.5073-0.0605-2.2682c0-0.7065,0.0183-1.4087,0.0521-2.1067  c0.0211-0.4303,0.0591-0.8561,0.093-1.283c0.0202-0.2579,0.0328-0.5179,0.0576-0.7745c0.0594-0.6099,0.1349-1.2151,0.2199-1.8174  c0.0089-0.0636,0.0146-0.1282,0.0238-0.1917c1.2702-8.7157,5.187-16.5989,10.9042-22.8027  c0.5256-0.5704,1.0687-1.1237,1.6242-1.6649c6.7525-6.5801,15.6556-10.9664,25.543-11.9613  c0.0743-0.0074,0.1498-0.0101,0.2242-0.0172c0.6302-0.0601,1.263-0.1108,1.9008-0.143c0.7205-0.036,1.4454-0.0552,2.1749-0.0552  c0.7135,0,1.4225,0.0192,2.1276,0.0538c0.3498,0.0173,0.6955,0.0499,1.0431,0.0757c0.3448,0.0253,0.691,0.0452,1.0335,0.0787  c0.4821,0.0476,0.9598,0.1105,1.4372,0.1741c0.1943,0.0256,0.3903,0.046,0.5839,0.0742c0.5825,0.0859,1.1604,0.186,1.7352,0.2952  c0.076,0.0143,0.1529,0.0261,0.2288,0.0408c7.9043,1.5479,15.0469,5.2892,20.765,10.5568c0.2253,0.2076,0.4443,0.4221,0.6652,0.6344  c7.5766,7.2824,12.5022,17.3025,13.1271,28.4285c0.003,0.0541,0.0095,0.1073,0.0123,0.1615  c0.0389,0.7432,0.0588,1.4912,0.0588,2.2437c0,0.7228-0.0192,1.4412-0.0546,2.1552c-0.02,0.3997-0.0572,0.7949-0.0882,1.1916  c-0.0236,0.3053-0.0397,0.6125-0.0698,0.916c-0.0557,0.558-0.1285,1.1109-0.2056,1.6624c-0.0183,0.1318-0.031,0.2653-0.0505,0.3967  c-1.3275,8.8896-5.4084,16.8932-11.3326,23.1274c-0.26,0.2736-0.5151,0.5521-0.7821,0.8188  C68.8,84.2872,58.0984,89.087,46.3255,89.087C45.6094,89.0872,44.8978,89.068,44.1904,89.0333z" class="color-3" data-name="color-3"/>
</svg>