<?xml version="1.0" encoding="utf-8"?>
<svg xmlns="http://www.w3.org/2000/svg" xmlns:xlink="http://www.w3.org/1999/xlink" version="1.1" id="PTFL001" x="0px" y="0px" viewBox="0 0 73.0893 54.6289" enable-background="new 0 0 73.0893 54.6289" xml:space="preserve" data-colorable="mascot">
  <path id="outline" fill="#BDBDC0" d="M72.5994,1.2193C72.4643,0.5103,71.8443,0,71.1264,0c-0.0137,0-0.0275,0.0002-0.0413,0.0005  c-0.7354,0.02-1.3477,0.5703-1.4458,1.2993c-0.359,2.667-4.8575,6.541-11.0895,6.541c-1.1425,0-2.3029-0.1315-3.4489-0.3909  c-2.9541-0.6685-5.8578-1.5748-8.666-2.4514c-5.1863-1.6188-10.5493-3.2928-16.4125-3.5264  c-0.2219-0.0088-0.4452-0.0131-0.6682-0.0132C20.6255,1.4586,11.4032,8.092,6.6827,12.0461  c-0.5675,0.4754-0.7033,1.2937-0.3199,1.9269c0.0815,0.1345,0.1812,0.2521,0.2943,0.3512  c-0.1202,0.0322-0.2424,0.0635-0.3671,0.0936c-0.5626,0.1358-0.9968,0.583-1.1159,1.1493c-0.1191,0.5663,0.098,1.1506,0.5582,1.5015  c1.8506,1.4114,2.8633,3.195,2.8331,3.7509c-0.0033,0.0017-0.0068,0.0035-0.0105,0.0054c-5.0359,2.5065-7.7896,5.2728-8.4187,8.4571  c-0.552,2.7937,0.5761,5.8193,3.3529,8.9927c0.2874,0.3284,0.7003,0.5122,1.1287,0.5122c0.0818,0,0.1642-0.0067,0.2464-0.0203  c0.5126-0.0853,0.9446-0.4299,1.1417-0.9108c2.0657-5.0396,7.3569-6.0974,11.4319-6.0974c1.158,0,2.3721,0.0863,3.6086,0.2565  c2.2218,0.3059,4.4698,1.3085,6.8499,2.3701c2.3099,1.0302,4.6984,2.0955,7.1542,2.5164c4.2814,0.7332,8.196,1.1063,11.6365,1.1088  c-0.0874,0.1129-0.1743,0.2252-0.2607,0.337c-0.2869,0.3709-0.5779,0.7471-0.8781,1.1323  c-0.2173-0.1204-0.4658-0.1876-0.7258-0.1876c-0.0203,0-0.0406,0.0004-0.061,0.0012l-0.842,0.034  c-0.098,0.004-0.1953,0.0175-0.2906,0.0405l-0.486,0.1169c-0.1242,0.0299-0.2441,0.0756-0.3567,0.1359l-0.3981,0.213  c-0.1305,0.0699-0.25,0.1587-0.3546,0.2635l-0.299,0.3c-0.1039,0.1042-0.1919,0.2231-0.2611,0.353l-0.191,0.358  c-0.0596,0.1118-0.1048,0.2306-0.1346,0.3537l-0.093,0.385c-0.0228,0.0943-0.0363,0.1906-0.0405,0.2875l-0.017,0.394  c-0.0032,0.0735-0.0009,0.1472,0.0067,0.2205l0.041,0.393c0.0057,0.0543,0.0143,0.1083,0.0258,0.1616l0.084,0.388  c0.0085,0.0394,0.0186,0.0784,0.0303,0.1169l0.114,0.377c0.0105,0.0345,0.0222,0.0687,0.035,0.1024  c0.0615,0.1604,0.1261,0.3241,0.1964,0.4892c-0.3732,0.3774-0.7475,0.7538-1.122,1.1304c-0.4292,0.4315-0.8585,0.8631-1.2862,1.2965  c-0.0576-0.0346-0.116-0.07-0.1752-0.1059l-0.1641-0.0992c-0.2365-0.1422-0.5042-0.2145-0.7731-0.2145  c-0.1849,0-0.3703,0.0341-0.5469,0.1033c-0.4334,0.1697-0.7635,0.531-0.8934,0.978l-0.184,0.633  c-0.0051,0.0175-0.0098,0.035-0.0143,0.0527c-0.0575,0.2285-0.0967,0.4302-0.1236,0.635c-0.0074,0.0565-0.0116,0.1133-0.0126,0.1703  l-0.005,0.304c-0.0012,0.0737,0.0031,0.1475,0.0126,0.2206l0.0201,0.152c0.0076,0.0582,0.0187,0.116,0.0331,0.1729l0.038,0.15  c0.013,0.0511,0.0287,0.1016,0.0469,0.1512l0.054,0.146c0.0211,0.0568,0.0455,0.1124,0.0732,0.1663l0.072,0.14  c0.023,0.0447,0.0482,0.0882,0.0756,0.1304l0.0869,0.134c0.0255,0.0392,0.0527,0.0772,0.0817,0.1139  c0.0021,0.0313,0.0052,0.0626,0.0093,0.0938l0.047,0.358c0.0178,0.1357,0.0541,0.2682,0.1078,0.394l0.138,0.323  c0.0435,0.1017,0.098,0.1982,0.1626,0.2879l0.204,0.283c0.0541,0.0751,0.1151,0.145,0.1821,0.2089l0.253,0.241  c0.054,0.0515,0.1118,0.0988,0.1729,0.1417l0.292,0.205c0.0511,0.0359,0.1045,0.0685,0.1597,0.0978l0.321,0.17  c0.0496,0.0263,0.1007,0.0498,0.153,0.0704l0.343,0.1349c0.0492,0.0193,0.0994,0.0361,0.1504,0.0502l0.359,0.099  c0.0513,0.0141,0.1033,0.0255,0.1559,0.0341l0.3659,0.0601c0.0549,0.009,0.1103,0.015,0.1658,0.0178l0.369,0.019  c0.0257,0.0013,0.0515,0.002,0.0772,0.002c0.037,0,0.074-0.0014,0.111-0.0042l0.364-0.027  c0.0755-0.0056,0.1505-0.0169,0.2243-0.0339l0.353-0.0809c0.0853-0.0196,0.1688-0.0466,0.2494-0.0807l0.333-0.141  c0.0311-0.0132,0.0617-0.0273,0.0918-0.0426c0.4119-0.0331,0.8242-0.0592,1.2363-0.0854c0.3757-0.0239,0.7512-0.0479,1.1265-0.0766  c0.4596-0.0418,0.8887-0.0882,1.3251-0.1471c0.0228-0.0031,0.0455-0.0067,0.0681-0.0107l0.808-0.147  c0.0299-0.0054,0.0596-0.0118,0.0891-0.019l0.395-0.097c0.0222-0.0054,0.0443-0.0114,0.0662-0.0179l0.387-0.114  c0.0272-0.008,0.054-0.0167,0.0807-0.0262l0.378-0.135c0.0287-0.0103,0.0572-0.0214,0.0853-0.0334l0.3671-0.157  c0.032-0.0137,0.0635-0.0285,0.0945-0.0444l0.355-0.182c0.0342-0.0175,0.0677-0.0364,0.1004-0.0565l0.342-0.21  c0.0344-0.0212,0.0681-0.0438,0.1007-0.0676l0.324-0.237c0.0355-0.026,0.0699-0.0535,0.103-0.0826l0.307-0.269  c0.0357-0.0313,0.0698-0.0641,0.1024-0.0987l0.285-0.3019c0.0311-0.033,0.0608-0.0674,0.0888-0.1031l0.263-0.335  c0.0281-0.0358,0.0545-0.0728,0.0792-0.1109l0.239-0.369c0.0251-0.0389,0.0485-0.0789,0.0699-0.1199l0.212-0.405  c0.0201-0.0385,0.0386-0.0778,0.0553-0.1178l0.184-0.441c0.0154-0.0369,0.0293-0.0743,0.0417-0.1123l0.156-0.478  c0.0119-0.0364,0.0223-0.0732,0.0314-0.1104l0.1259-0.517c0.0081-0.0332,0.0151-0.0667,0.0209-0.1003l0.096-0.5571  c0.0054-0.0316,0.0099-0.0634,0.0133-0.0953l0.064-0.599c0.0031-0.0289,0.0054-0.058,0.0068-0.0871l0.0309-0.642  c0.0012-0.0248,0.0018-0.0497,0.0018-0.0746l-0.001-0.688c-0.0001-0.0234-0.0006-0.0468-0.0018-0.0702l-0.0549-1.137  c-0.0125-0.2574-0.0908-0.5045-0.2241-0.7191c0.8712-1.1621,1.7238-2.3065,2.5796-3.4553c1.0352-1.3895,2.0752-2.7857,3.1593-4.2278  C66.4839,27.144,75.2753,15.2673,72.5994,1.2193z" class="outline" data-name="outline"/>
  <path id="color-4" fill="#FFFFFF" d="M51.4289,36.2245c0.746-0.073,3.1609-0.667,3.907-0.74c-1.957,2.662-3.653,5.234-5.829,7.8521  c-0.864,0.364-2.442-0.117-2.538-1.119C48.9069,39.9395,49.7109,38.6815,51.4289,36.2245z" class="color-4" data-name="color-4"/>
  <path id="color-3" fill="#FFFFFF" d="M33.8815,17.6442c-0.351-0.821-0.175-1.594,0.176-2.32c0.381-0.025,0.586-0.051,0.966-0.077  c0.178-0.603,0.59-1.015,1.237-1.237c-0.444,0.052-0.888,0.103-1.332,0.155c0.591-3.233,3.689-3.982,6.374-4.407  c2.045-0.324,3.87,0.733,5.014,1.582c-0.667,0.129-1.685,0.222-2.35,0.351c1.774,0.404,3.631,0.729,4.091,2.397  c-0.752,0.824-1.481,1.649-1.5229,2.473c0.449,0.685,0.202,1.384-0.38,1.856c-0.957,0.775-2.22,0.324-3.33,0.077  c-0.095,0.335-0.19,0.67-0.285,1.005h-0.856c-0.096,0.283-0.191,0.567-0.286,0.85h-0.761c0.032-0.232,0.064-0.464,0.095-0.6949  c-0.222-0.052-0.444-0.104-0.666-0.155c-0.126,0.258-0.253,0.515-0.3799,0.773c-0.317-0.077-0.635-0.155-0.952-0.232  c0.064-0.283,0.128-0.567,0.19-0.85c-0.221-0.052-0.443-0.103-0.665-0.155c-0.159,0.309-0.317,0.619-0.476,0.928  c-0.285-0.155-0.57-0.309-0.857-0.464c0.159-0.258,0.318-0.515,0.477-0.773c-0.19-0.051-0.381-0.103-0.571-0.155  c-0.159,0.258-0.318,0.516-0.476,0.773c-0.38-0.1801-0.761-0.36-1.142-0.541c0.127-0.335,0.254-0.67,0.381-1.005  C35.0235,17.7472,34.4525,17.6952,33.8815,17.6442z M39.0194,21.0675c-0.254,0.077-0.508,0.154-0.761,0.232  c-0.127-0.232-0.254-0.464-0.381-0.696c-0.348,0.103-0.698,0.206-1.046,0.309c-0.222-0.257-0.445-0.515-0.666-0.773  c-0.286,0.052-0.571,0.103-0.8571,0.155c-0.127-0.412-0.254-0.825-0.3799-1.2371c-0.3101,0.434-0.591,0.903-0.666,1.623  c0.639,1.424,2.373,2.307,5.708,2.397c0.998-0.614,1.513-1.36,1.808-2.165c-0.761,0.232-1.522,0.464-2.284,0.696  C39.3364,21.4285,39.1774,21.2475,39.0194,21.0675z M40.3856,28.636c-4.483-4.076-7.207-7.878-10.047-12.934  c0.245-0.464,0.49-0.928,0.7339-1.392c-0.095-1.315-0.41-2.452-2.269-2.333c-0.637-0.003-1.018,0.398-1.144,1.202  c-0.666,0.005-1.332,0.01-1.999,0.015c-0.734,0.471-0.921,1.104,0.099,2.095c0.948,0.31,1.896,0.62,2.844,0.929  c3.494,5.636,5.702,8.651,10.464,13.285c-0.011,1.236,0.539,2.012,1.2451,2.66c1.022,0.5179,2.306,0.322,1.613-1.4091  C45.2465,32.309,42.1446,26.997,40.3856,28.636z M31.1027,24.9321c-0.41-2.6-6.703-0.249-2.772,0.729  c-1.775,0.987-0.796,2.039,0.441,2.306c1.051-0.06,2.054-0.337,2.884-1.39c1.291-0.112,2.19-0.113,3.307-0.255l-1.384-1.602  C32.6867,24.8101,32.0567,24.8821,31.1027,24.9321z M54.3367,22.0391c-0.573-0.464-1.146-0.929-1.72-1.393  c0.438-0.767,0.38-1.369-0.174-1.806c-1.528-1.385-2.573-0.642-3.548,0.405c-0.104,0.562-0.207,1.123-0.31,1.685  c-4.046,1.59-7.23,2.5941-11.2401,3.2581l1.427,1.469c3.738-0.664,6.485-1.553,10.965-3.091c1.031,0.392,2.061,0.785,3.093,1.177  C54.3847,23.6091,54.6537,22.9451,54.3367,22.0391z" class="color-3" data-name="color-3"/>
  <path id="color-2" fill="#EEBD5B" d="M69.3015,7.3432c-2.132,2.588-8.26,3.943-12.264,3.682l-0.834-0.093l-0.847-0.133  c-1.374-0.28-2.711-0.618-4.054-0.981c-3.839-1.074-7.582-2.354-11.424-3.417c-0.751-0.201-1.502-0.392-2.258-0.575  c-1.01-0.23-2.015-0.435-3.038-0.618c-0.728-0.116-1.452-0.217-2.183-0.306c0.699,0.488,1.203,0.998,1.265,1.559  c-1.022-0.3651-2.19-0.54-3.442-0.373c1.245,0.27,1.657,0.901,1.951,1.585c-3.24-0.953-5.584-0.572-7.801,0  c0.841-0.86,1.808-1.703,3.671-2.424c-1.084-0.164-2.167-0.116-3.251,0.036l-0.466,0.112c-0.693,0.202-1.361,0.421-2.034,0.663  c-0.676,0.265-1.3311,0.543-1.987,0.84c-0.653,0.316-1.291,0.642-1.924,0.983c-1.545,0.874-3.012,1.81-4.416,2.83  c2.888-0.78,5.086-0.802,8.075-1.0829c-2.722,2.076-4.409,3.582-8.066,4.6039l1.397,1.475l-2.412,0.077  c-0.409,0.004-0.793,0.027-1.198,0.078c-0.556,0.092-1.076,0.2271-1.609,0.384c1.005,0.962,1.83,2.066,2.332,3.261  c0.093,0.26,0.167,0.508,0.226,0.773c0.039,0.267,0.053,0.51,0.043,0.778l-0.109,0.517l-0.252,0.501l-0.184,0.2339l-0.225,0.215  l-0.26,0.191c-0.212,0.121-0.43,0.237-0.65,0.351c1.002-0.116,1.9269-0.069,2.652,0.446c-2.445,0.019-3.295,0.301-4.28,0.857  c2.032-0.004,1.838-0.056,3.654,0.35c1.203,0.269,1.998,0.931,2.273,1.529c-2.663,0.185-5.282,0.722-7.805,2.036  c0.042-1.288,1.712-2.135,3.437-2.968c-7.784,0.4-7.406,6.305-5.713,8.101c2.908-5.034,12.855-5.918,18.69-4.347  c0.479,0.1219,0.944,0.253,1.41,0.397c1.095,0.364,2.138,0.78,3.182,1.225c8.056,3.514,12.5049,4.2661,22.4319,3.549l3.107-2.322  l-0.361,1.684c1.028-0.188,2.185-0.742,3.169-1.059c1.462-1.605,1.919-2.054,3.305-3.703c0.7-0.854,1.382-1.714,2.051-2.586  c0.6461-0.875,1.268-1.754,1.872-2.65l1.127-1.812l1.013-1.856l0.887-1.905l0.75-1.962l0.318-1.004l0.279-1.021l0.239-1.038  l0.023-0.127c-1.551,0.044-3.1021-0.081-4.653-0.464c2.327-0.171,3.842-0.631,4.978-1.566  C69.2195,9.6922,69.3965,8.5072,69.3015,7.3432z M41.9256,30.754c0.693,1.731-0.591,1.927-1.613,1.4091  c-0.7061-0.648-1.256-1.424-1.2451-2.66c-4.762-4.634-6.97-7.649-10.464-13.285c-0.948-0.309-1.896-0.619-2.844-0.929  c-1.02-0.991-0.833-1.624-0.099-2.095c0.667-0.0049,1.333-0.0099,1.999-0.015c0.126-0.804,0.507-1.205,1.144-1.202  c1.859-0.119,2.174,1.018,2.269,2.333c-0.244,0.464-0.489,0.928-0.7339,1.392c2.84,5.056,5.564,8.858,10.047,12.934  C42.1446,26.997,45.2465,32.309,41.9256,30.754z M28.7717,27.9671c-1.237-0.267-2.216-1.319-0.441-2.306  c-3.931-0.978,2.362-3.329,2.772-0.729c0.954-0.05,1.584-0.122,2.476-0.212l1.384,1.602c-1.117,0.142-2.016,0.143-3.307,0.255  C30.8257,27.6301,29.8227,27.9071,28.7717,27.9671z M34.0575,15.3242c0.381-0.025,0.586-0.051,0.966-0.077  c0.178-0.603,0.59-1.015,1.237-1.237c-0.444,0.052-0.888,0.103-1.332,0.155c0.591-3.233,3.689-3.982,6.374-4.407  c2.045-0.324,3.87,0.733,5.014,1.582c-0.667,0.129-1.685,0.222-2.35,0.351c1.774,0.404,3.631,0.729,4.091,2.397  c-0.752,0.824-1.481,1.649-1.5229,2.473c0.449,0.685,0.202,1.384-0.38,1.856c-0.957,0.775-2.22,0.324-3.33,0.077  c-0.095,0.335-0.19,0.67-0.285,1.005h-0.856c-0.096,0.283-0.191,0.567-0.286,0.85h-0.761c0.032-0.232,0.064-0.464,0.095-0.6949  c-0.222-0.052-0.444-0.104-0.666-0.155c-0.126,0.258-0.253,0.515-0.3799,0.773c-0.317-0.077-0.635-0.155-0.952-0.232  c0.064-0.283,0.128-0.567,0.19-0.85c-0.221-0.052-0.443-0.103-0.665-0.155c-0.159,0.309-0.317,0.619-0.476,0.928  c-0.285-0.155-0.57-0.309-0.857-0.464c0.159-0.258,0.318-0.515,0.477-0.773c-0.19-0.051-0.381-0.103-0.571-0.155  c-0.159,0.258-0.318,0.516-0.476,0.773c-0.38-0.1801-0.761-0.36-1.142-0.541c0.127-0.335,0.254-0.67,0.381-1.005  c-0.571-0.051-1.142-0.103-1.713-0.154C33.5305,16.8232,33.7065,16.0502,34.0575,15.3242z M41.7784,20.9125  c-0.295,0.805-0.81,1.551-1.808,2.165c-3.335-0.09-5.069-0.973-5.708-2.397c0.075-0.72,0.356-1.189,0.666-1.623  c0.126,0.412,0.253,0.825,0.3799,1.2371c0.286-0.052,0.571-0.103,0.8571-0.155c0.2209,0.258,0.444,0.516,0.666,0.773  c0.348-0.103,0.698-0.206,1.046-0.309c0.127,0.232,0.254,0.464,0.381,0.696c0.253-0.078,0.507-0.155,0.761-0.232  c0.158,0.18,0.317,0.361,0.475,0.541C40.2564,21.3765,41.0174,21.1445,41.7784,20.9125z M38.7717,25.6571l-1.427-1.469  c4.01-0.664,7.194-1.668,11.2401-3.2581c0.103-0.562,0.206-1.123,0.31-1.685c0.975-1.047,2.02-1.79,3.548-0.405  c0.554,0.437,0.612,1.039,0.174,1.806c0.574,0.4641,1.147,0.929,1.72,1.393c0.317,0.906,0.048,1.57-1.507,1.704  c-1.032-0.392-2.062-0.785-3.093-1.177C45.2567,24.1041,42.5097,24.9931,38.7717,25.6571z M44.7805,45.182  c0.382,0.452,1.082,0.801,2.101,1.0471c-1.608,1.603-3.215,3.207-4.822,4.81c-0.955-0.142-1.591-0.543-1.91-1.202  C41.6935,48.285,43.2375,46.733,44.7805,45.182z" class="color-2" data-name="color-2"/>
  <path id="color-1" fill="#040404" d="M71.1278,1.5c-0.56,4.16-7.665,9.38-16.356,7.413c-8.476-1.918-16.018-5.592-24.807-5.942  c-8.174-0.325-17.303,6.025-22.317,10.225c3.251-1.343,5.888-1.552,9.138-1.829c-1.959,1.514-3.251,1.768-6.085,2.395  c0.525,0.466,0.478,0.733,1.003,1.198c-2.205-0.105-3.291,0.489-5.06,0.916c2.402,1.832,4.706,5.235,2.581,6.292  c-7.275,3.621-10.64,8.222-4.605,15.119c2.657-6.482,10.007-7.67,16.633-6.758c4.721,0.65,9.368,4.091,14.053,4.894  c4.712,0.807,9.8651,1.33,14.561,0.973c-1.685,2.092-2.872,3.715-4.54,5.781c0.116,0.2507,0.2488,0.4742,0.3932,0.6779  l-0.0513-0.066l-0.254-0.416l-0.225-0.4709l-0.194-0.5291l-0.172-0.581l-0.842,0.034l-0.486,0.117l-0.398,0.213l-0.299,0.3  l-0.191,0.358l-0.093,0.385l-0.017,0.394l0.041,0.393l0.084,0.388l0.114,0.377c0.172,0.449,0.36,0.899,0.627,1.303  c-1.28,1.309-2.584,2.597-3.865,3.909c-0.083,0.007-0.184-0.019-0.266-0.036l-0.297-0.111c-0.3181-0.159-0.618-0.348-0.924-0.532  l-0.184,0.633c-0.039,0.155-0.07,0.304-0.091,0.4641l-0.005,0.304l0.02,0.152l0.038,0.15l0.054,0.146l0.072,0.14l0.087,0.134  c0.122,0.152,0.248,0.288,0.399,0.412l-0.0211,0.046l-0.058,0.371l0.047,0.358l0.138,0.323l0.204,0.283l0.253,0.241l0.292,0.205  l0.321,0.17l0.343,0.1349l0.359,0.099l0.366,0.0601l0.369,0.019l0.364-0.027l0.353-0.081l0.333-0.141l0.178-0.124  c0.915-0.084,1.832-0.125,2.747-0.195c0.416-0.038,0.824-0.082,1.239-0.138l0.808-0.147l0.395-0.097l0.387-0.114l0.378-0.135  l0.367-0.157l0.355-0.182l0.342-0.21l0.324-0.237l0.307-0.269l0.285-0.302l0.263-0.335l0.239-0.369l0.212-0.405l0.184-0.441  l0.156-0.478l0.126-0.517l0.096-0.557l0.064-0.599l0.031-0.642l-0.001-0.688l-0.055-1.137l-0.701,0.083  c-0.1979,0.019-0.3949,0.0303-0.5922,0.0424c2.4579-3.2527,4.6891-6.2856,7.1493-9.5574C65.2927,26.235,73.6608,14.798,71.1278,1.5z   M46.7389,43.8282l-0.1482-0.0933l-0.334-0.269l-0.0161-0.0165C46.3975,43.5933,46.5652,43.7167,46.7389,43.8282z M46.1934,43.401  l-0.2438-0.2501l-0.1734-0.2233C45.906,43.1017,46.0451,43.2598,46.1934,43.401z M42.0595,51.0391  c-0.955-0.142-1.591-0.543-1.91-1.202c1.544-1.552,3.088-3.104,4.631-4.655c0.382,0.452,1.082,0.801,2.101,1.0471  C45.2735,47.832,43.6665,49.436,42.0595,51.0391z M46.8424,43.8934c0.1781,0.1064,0.3622,0.2005,0.5536,0.2779l-0.0563-0.0204  l-0.387-0.188L46.8424,43.8934z M48.7057,47.8829l-0.034,0.21l-0.051,0.206l-0.069,0.202l-0.086,0.197l-0.102,0.193l-0.118,0.188  l-0.133,0.181l-0.147,0.174l-0.336,0.33l-0.384,0.295l-0.428,0.26l-0.463,0.217l-0.49,0.172l-0.511,0.121l-1.136,0.075l0.556-0.594  c1.026-1.096,2.053-2.192,3.08-3.287c0.21,0.003,0.421-0.002,0.633-0.007l0.166-0.002l0.041,0.211l0.024,0.224l0.004,0.219  L48.7057,47.8829z M47.4518,44.1916c0.1584,0.0615,0.3223,0.1089,0.4875,0.153c-0.0607-0.0154-0.1227-0.0256-0.1837-0.0427  L47.4518,44.1916z M48.2569,44.4185c0.1153,0.0233,0.2314,0.0436,0.3486,0.0599c-0.058-0.0076-0.1166-0.0107-0.1749-0.0195  C48.3712,44.4479,48.3152,44.4307,48.2569,44.4185z M49.1637,44.5409c-0.0659-0.0051-0.1295-0.0157-0.1946-0.0218  c0.1247,0.0104,0.2495,0.0192,0.3751,0.0234C49.2841,44.541,49.2238,44.5432,49.1637,44.5409z M49.9527,44.5479  c-0.0834,0.0016-0.1655-0.0024-0.2482-0.0022c0.1396-0.0014,0.2792-0.0025,0.4183-0.0099  C50.066,44.539,50.0095,44.5453,49.9527,44.5479z M49.5069,43.3365c-0.864,0.364-2.442-0.117-2.538-1.119  c1.938-2.278,2.742-3.536,4.46-5.993c0.746-0.073,3.1609-0.667,3.907-0.74C53.3789,38.1465,51.6829,40.7185,49.5069,43.3365z   M53.7515,33.6062l0.361-1.684l-3.107,2.322c-9.927,0.717-14.376-0.035-22.4319-3.549c-1.044-0.4449-2.087-0.861-3.182-1.225  c-0.466-0.144-0.931-0.275-1.41-0.397c-5.835-1.571-15.782-0.687-18.69,4.347c-1.693-1.796-2.071-7.701,5.713-8.101  c-1.725,0.833-3.395,1.68-3.437,2.968c2.523-1.314,5.142-1.851,7.805-2.036c-0.275-0.598-1.07-1.26-2.273-1.529  c-1.816-0.406-1.6219-0.354-3.654-0.35c0.985-0.556,1.835-0.838,4.28-0.857c-0.725-0.515-1.65-0.562-2.652-0.446  c0.22-0.114,0.438-0.23,0.65-0.351l0.26-0.191l0.225-0.215l0.184-0.2339l0.252-0.501l0.109-0.517  c0.0099-0.268-0.004-0.511-0.043-0.778c-0.059-0.265-0.133-0.513-0.226-0.773c-0.502-1.195-1.327-2.299-2.332-3.261  c0.533-0.157,1.053-0.292,1.609-0.384c0.405-0.051,0.789-0.074,1.198-0.078l2.412-0.077l-1.397-1.475  c3.657-1.022,5.3441-2.528,8.066-4.6039c-2.989,0.2809-5.187,0.303-8.075,1.0829c1.404-1.02,2.871-1.956,4.416-2.83  c0.633-0.341,1.271-0.667,1.924-0.983c0.6559-0.297,1.311-0.575,1.987-0.84c0.673-0.242,1.341-0.461,2.034-0.663l0.466-0.112  c1.084-0.152,2.167-0.2,3.251-0.036c-1.863,0.721-2.83,1.564-3.671,2.424c2.217-0.572,4.561-0.953,7.801,0  c-0.294-0.684-0.706-1.315-1.951-1.585c1.252-0.167,2.42,0.008,3.442,0.373c-0.062-0.561-0.566-1.071-1.265-1.559  c0.731,0.089,1.455,0.19,2.183,0.306c1.023,0.183,2.028,0.388,3.038,0.618c0.756,0.183,1.507,0.374,2.258,0.575  c3.842,1.063,7.585,2.343,11.424,3.417c1.343,0.363,2.6801,0.701,4.054,0.981l0.847,0.133l0.834,0.093  c4.004,0.261,10.132-1.094,12.264-3.682c0.095,1.164-0.082,2.349-0.192,3.51c-1.136,0.935-2.651,1.395-4.978,1.566  c1.551,0.383,3.102,0.508,4.653,0.464l-0.023,0.127l-0.239,1.038l-0.279,1.021l-0.318,1.004l-0.75,1.962l-0.887,1.905l-1.013,1.856  l-1.127,1.812c-0.604,0.896-1.2259,1.775-1.872,2.65c-0.6689,0.872-1.351,1.732-2.051,2.586c-1.386,1.649-1.843,2.098-3.305,3.703  C55.9365,32.8642,54.7795,33.4182,53.7515,33.6062z M53.4403,20.3907c0.792-3.427-4.365-3.55-4.998-1.653  c-0.151,0.565-0.302,1.129-0.454,1.694c-1.9109,0.74-3.955,1.435-6.196,2.065c0.937-0.921,1.379-1.938,1.611-3.18  c3.374,0.189,2.753,0.568,4.131-2.519c1.378-2.173,1.942-4.125-0.537-6.114c-3.329-1.834-7.04-2.958-11.772,1.033  c-0.64,0.895-1.246,1.872-1.1151,2.768c-1.593,0.6931-0.956,2.627-1.198,3.717c-0.743-0.73-1.225-1.79-1.528-2.52  c1.035-2.616-0.027-3.699-1.239-4.502c-0.621-0.411-1.979-0.199-3.098,1.239c-5.825-0.275-1.897,4.597,1.239,4.709  c1.404,2.426,2.988,4.718,4.833,6.815c-0.537,0.014-1.074,0.027-1.611,0.042c-3.762-2.955-6.747,1.186-4.42,1.94  c-0.344,1.592-0.725,2.04,1.075,2.726c2.289,0.045,2.098,0.084,3.84-1.445c1.24-0.055,2.314-0.317,3.553-0.372  c0.895,0.895,1.955,1.996,2.85,2.8911c-0.315,3.399,4.414,4.701,4.13,1.735c2.965,0.553,1.67-3.939-1.693-3.8  c-0.551-0.578-0.895-0.785-1.446-1.363c3.468-0.473,6.472-1.482,10.1609-3.056c1.032,0.44,2.106,0.716,3.139,1.156  c2.123-0.175,3.039-1.022,2.189-2.849C54.4043,21.1617,53.9223,20.7757,53.4403,20.3907z M34.0575,15.3242  c0.381-0.025,0.586-0.051,0.966-0.077c0.178-0.603,0.59-1.015,1.237-1.237c-0.444,0.052-0.888,0.103-1.332,0.155  c0.591-3.233,3.689-3.982,6.374-4.407c2.045-0.324,3.87,0.733,5.014,1.582c-0.667,0.129-1.685,0.222-2.35,0.351  c1.774,0.404,3.631,0.729,4.091,2.397c-0.752,0.824-1.481,1.649-1.5229,2.473c0.449,0.685,0.202,1.384-0.38,1.856  c-0.957,0.775-2.22,0.324-3.33,0.077c-0.095,0.335-0.19,0.67-0.285,1.005h-0.856c-0.096,0.283-0.191,0.567-0.286,0.85h-0.761  c0.032-0.232,0.064-0.464,0.095-0.6949c-0.222-0.052-0.444-0.104-0.666-0.155c-0.126,0.258-0.253,0.515-0.3799,0.773  c-0.317-0.077-0.635-0.155-0.952-0.232c0.064-0.283,0.128-0.567,0.19-0.85c-0.221-0.052-0.443-0.103-0.665-0.155  c-0.159,0.309-0.317,0.619-0.476,0.928c-0.285-0.155-0.57-0.309-0.857-0.464c0.159-0.258,0.318-0.515,0.477-0.773  c-0.19-0.051-0.381-0.103-0.571-0.155c-0.159,0.258-0.318,0.516-0.476,0.773c-0.38-0.1801-0.761-0.36-1.142-0.541  c0.127-0.335,0.254-0.67,0.381-1.005c-0.571-0.051-1.142-0.103-1.713-0.154C33.5305,16.8232,33.7065,16.0502,34.0575,15.3242z   M41.7784,20.9125c-0.295,0.805-0.81,1.551-1.808,2.165c-3.335-0.09-5.069-0.973-5.708-2.397c0.075-0.72,0.356-1.189,0.666-1.623  c0.126,0.412,0.253,0.825,0.3799,1.2371c0.286-0.052,0.571-0.103,0.8571-0.155c0.2209,0.258,0.444,0.516,0.666,0.773  c0.348-0.103,0.698-0.206,1.046-0.309c0.127,0.232,0.254,0.464,0.381,0.696c0.253-0.078,0.507-0.155,0.761-0.232  c0.158,0.18,0.317,0.361,0.475,0.541C40.2564,21.3765,41.0174,21.1445,41.7784,20.9125z M31.6557,26.5771  c-0.83,1.053-1.833,1.33-2.884,1.39c-1.237-0.267-2.216-1.319-0.441-2.306c-3.931-0.978,2.362-3.329,2.772-0.729  c0.954-0.05,1.584-0.122,2.476-0.212l1.384,1.602C33.8457,26.4641,32.9467,26.4651,31.6557,26.5771z M40.3856,28.636  c1.759-1.639,4.861,3.673,1.54,2.118c0.693,1.731-0.591,1.927-1.613,1.4091c-0.7061-0.648-1.256-1.424-1.2451-2.66  c-4.762-4.634-6.97-7.649-10.464-13.285c-0.948-0.309-1.896-0.619-2.844-0.929c-1.02-0.991-0.833-1.624-0.099-2.095  c0.667-0.0049,1.333-0.0099,1.999-0.015c0.126-0.804,0.507-1.205,1.144-1.202c1.859-0.119,2.174,1.018,2.269,2.333  c-0.244,0.464-0.489,0.928-0.7339,1.392C33.1786,20.758,35.9026,24.56,40.3856,28.636z M52.8297,23.7431  c-1.032-0.392-2.062-0.785-3.093-1.177c-4.48,1.538-7.227,2.427-10.965,3.091l-1.427-1.469c4.01-0.664,7.194-1.668,11.2401-3.2581  c0.103-0.562,0.206-1.123,0.31-1.685c0.975-1.047,2.02-1.79,3.548-0.405c0.554,0.437,0.612,1.039,0.174,1.806  c0.574,0.4641,1.147,0.929,1.72,1.393C54.6537,22.9451,54.3847,23.6091,52.8297,23.7431z M36.5454,15.2478  c0.241-0.558,0.538-1.084,1.2371-1.392c0.698,0.4901,1.5099,0.933,2.265,1.19c-0.191,0.2061-0.553,0.691-0.742,0.897  C38.1184,16.1988,37.1224,16.1058,36.5454,15.2478z M42.5391,16.8706c-0.553-0.515-0.648-1.031-0.285-1.546  c1.008,0.031,1.864-0.123,2.568-0.464c0.464,0.567,0.642,1.134,0.191,1.701C44.3401,16.9746,43.5161,17.0766,42.5391,16.8706z   M40.446,16.0975c0.851,0.747,0.632,1.4951,0.476,2.242c-0.221-0.323-0.332-0.725-0.952-0.85c-0.567-0.115-1.038,0.148-1.521,0.309  C38.928,17.1305,39.424,16.4715,40.446,16.0975z M60.6664,24.8658c-1.255,2.0161-3.44,3.55-5.161,5.326  c2.544-3.64,4.912-7.278,6.799-10.9171C61.7584,21.1388,61.7313,23.1568,60.6664,24.8658z" class="color-1" data-name="color-1"/>
</svg>