<?xml version="1.0" encoding="utf-8"?>
<svg xmlns="http://www.w3.org/2000/svg" xmlns:xlink="http://www.w3.org/1999/xlink" version="1.1" id="RAZR003" x="0px" y="0px" viewBox="0 0 81.12 46.7601" enable-background="new 0 0 81.12 46.7601" xml:space="preserve" data-colorable="mascot">
  <path id="outline" fill="#BDBDC0" d="M80.9785,27.5661l-1.139-2.433c-0.0262-0.0561-0.056-0.1105-0.0889-0.1629  c-0.0511-0.0812-0.1061-0.1686-0.1671-0.2598l0.1671-1.6755c0.0488-0.4895-0.1455-0.9719-0.52-1.2908  c-0.2745-0.2338-0.6204-0.358-0.9727-0.358c-0.1284,0-0.2575,0.0165-0.3845,0.0501l-1.2556,0.3344  c-0.5554,0.1483-1.1108,0.2964-1.6659,0.443c-0.3265-0.3177-0.6769-0.6209-1.0458-0.9049c-0.4161-0.3123-0.8234-0.5694-1.2183-0.816  c-0.19-0.172-0.3793-0.341-0.5807-0.5002c-0.2468-0.1854-0.466-0.3372-0.6945-0.481c-0.5163-0.312-1.0732-0.5499-1.726-0.7416  l-0.3225-0.0845c-0.3246-0.075-0.6068-0.1263-0.8936-0.1718c-0.0776-0.0123-0.156-0.0184-0.2345-0.0184  c-0.0264,0-0.0527,0.0007-0.079,0.0021l-0.588,0.031c-0.0327,0.0017-0.0652,0.0045-0.0977,0.0084  c-0.2583,0.0306-0.512,0.067-0.7691,0.1135c-0.032,0.0058-0.0638,0.0126-0.0954,0.0205l-0.643,0.16  c-0.0321,0.0079-0.0639,0.017-0.0953,0.0271c-0.3051,0.0977-0.5921,0.2067-0.8664,0.3294c-0.0902-0.0179-0.1812-0.0341-0.274-0.0487  c-0.021-0.0033-0.0421-0.0061-0.0631-0.0085c-0.23-0.0262-0.455-0.0413-0.6887-0.0463c-0.0107-0.0002-0.0215-0.0004-0.0323-0.0004  c-0.028,0-0.0561,0.0008-0.0842,0.0023c-0.254,0.0143-0.5007,0.038-0.7535,0.0724c-0.0222,0.0031-0.0442,0.0065-0.0662,0.0106  c-0.1957,0.0356-0.386,0.0761-0.5778,0.1232l-3.9253-6.9426l0.0076-0.0417c0.074-0.4059-0.0223-0.8243-0.2665-1.1569l-0.174-0.237  l-0.0918-0.1276c-0.1045-0.1453-0.2131-0.2964-0.3282-0.4498c0.1858-0.3259,0.2443-0.7132,0.1573-1.0848  c-0.1074-0.4587-0.424-0.8403-0.855-1.0305l-0.327-0.1443c-0.0023-0.0126-0.0047-0.0251-0.0073-0.0377  c-0.0737-0.3579-0.2741-0.6717-0.5571-0.8885c0.3057-0.386,0.4064-0.9045,0.2534-1.3858c-0.1656-0.5206-0.5989-0.9054-1.1252-1.0142  c0.2306-0.3891,0.2787-0.8721,0.1065-1.312c-0.2264-0.5785-0.7836-0.9532-1.3961-0.9532c-0.0427,0-0.0856,0.0018-0.1287,0.0055  L51.0322,2.728c0.3988-0.4854,0.4533-1.1697,0.1332-1.7132c-0.2732-0.4639-0.7687-0.7388-1.2922-0.7389  c-0.1012,0-0.2033,0.0103-0.3052,0.0314l-4.749,0.986c-0.1042,0.0234-0.2073,0.0472-0.3092,0.0712  c-0.0322-0.3538-0.1896-0.6934-0.4586-0.95C43.766,0.1424,43.3931,0,43.0156,0c-0.2269,0-0.4553,0.0515-0.6675,0.157l-4.098,2.038  c-0.0247,0.0129-0.0493,0.0259-0.0739,0.0389c-0.1121-0.3337-0.3406-0.6258-0.6581-0.8137  c-0.2369-0.1403-0.501-0.2092-0.7637-0.2092c-0.3488-0.0001-0.6953,0.1214-0.9734,0.3585l-1.146,0.977l-0.6312,0.5287  c-0.8044,0.6719-1.6263,1.3585-2.4152,2.0989c-0.049-0.0048-0.0981-0.0072-0.147-0.0072c-0.3956,0-0.7845,0.1566-1.0726,0.4511  l-2.966,3.032c-0.1075,0.1155-0.2065,0.2236-0.2986,0.3264c-0.0344-0.0023-0.0687-0.0035-0.103-0.0035  c-0.3618,0-0.717,0.131-0.9951,0.3776l-0.2563,0.2261c-0.3461,0.3045-0.7039,0.6194-1.053,0.9623  c-0.5239,0.5217-1.0135,1.1142-1.5043,1.8184c-0.01,0.0143-0.0197,0.0287-0.0292,0.0434l-0.296,0.458  c-0.0109,0.0168-0.0214,0.0338-0.0316,0.0511c-0.2749,0.4651-0.5115,0.9136-0.7146,1.3554  c-0.4362,0.1191-0.8555,0.2507-1.2711,0.3986c-0.031,0.011-0.0617,0.0231-0.0919,0.0362c-0.1384,0.0598-0.2769,0.1218-0.4142,0.186  c-0.469,0.2201-0.9664,0.4668-1.4387,0.7855c-0.4625,0.3184-0.9893,0.6984-1.4823,1.1641  c-0.2158,0.2088-0.4141,0.4072-0.6082,0.6109c-0.2908,0.3111-0.6197,0.6725-0.9257,1.0712  c-0.0125,0.0163-0.0247,0.0328-0.0364,0.0496l-1.0577,1.502l0.6248-1.8071c0.2075-0.6001,0.0146-1.2658-0.4814-1.6621  c-0.2723-0.2176-0.6038-0.3281-0.9365-0.3281c-0.2734-0.0001-0.5476,0.0745-0.791,0.2256l-2.9985,1.8615l-0.0948-2.1618  c-0.0284-0.6464-0.468-1.2018-1.0907-1.3777c-0.1351-0.0382-0.2723-0.0566-0.4078-0.0566c-0.4893,0-0.9587,0.2401-1.2426,0.6598  l-0.777,1.149L6.0077,17.434l-0.536,0.7807c-0.5828,0.859-1.1008,1.6357-1.5695,2.4867c-0.174,0.3267-0.3276,0.6373-0.4748,0.9532  c-0.2265,0.5111-0.4136,0.9932-0.5841,1.5004c-0.1539,0.4848-0.2615,0.8759-0.3468,1.2555  c-0.0936,0.4533-0.165,0.8826-0.2318,1.3143c-0.0316,0.2046-0.0206,0.4135,0.0324,0.6136l0.2613,0.9858l-1.2755,0.1866  c-0.5165,0.0756-0.9565,0.4142-1.1619,0.8941c-0.2053,0.4799-0.1464,1.032,0.1556,1.4578l2.066,2.913l4.1767,5.9811  c0.0471,0.0673,0.0995,0.1307,0.157,0.1895l0.173,0.177c0.2835,0.2901,0.6709,0.4517,1.0728,0.4517  c0.0453,0,0.0908-0.0021,0.1364-0.0062l0.8297-0.0757c0.0792,0.384,0.3065,0.7245,0.6367,0.9448l2.607,1.739  c0.2498,0.1666,0.54,0.2521,0.8325,0.2521c0.1747,0,0.3503-0.0305,0.5186-0.0925l2.7284-1.0055  c0.2909,0.0466,0.5955,0.0873,0.9214,0.123c0.288,0.0287,0.5637,0.0424,0.8348,0.0424c0.3925,0,0.7873-0.0287,1.1734-0.0853  c0.1813-0.0309,0.3236-0.0582,0.4636-0.0887c0.4939-0.1165,0.8987-0.301,1.2328-0.4669c0.3254-0.1696,0.5621-0.3492,0.7523-0.4935  c0.0325-0.0247,0.0983-0.0766,0.1287-0.1039l0.366-0.328c0.035-0.0313,0.0685-0.0643,0.1005-0.0989l0.33-0.357  c0.0211-0.0228,0.0415-0.0463,0.0612-0.0704c0.1752-0.215,0.3418-0.4294,0.4984-0.6561c0.3011-0.4474,0.5723-0.8864,0.8339-1.312  c0.1735,0.3731,0.494,0.6606,0.8884,0.7913l2.4344,0.8064l-3.9319,3.033c-0.5161,0.398-0.716,1.0838-0.4948,1.6968  c0.2151,0.5961,0.7807,0.9908,1.4106,0.9908c0.0179,0,0.0358-0.0003,0.0538-0.001l2.4421-0.087  c-0.2119,0.491-0.1467,1.0605,0.176,1.4922c0.2861,0.3827,0.7335,0.6019,1.2012,0.6019c0.0876,0,0.1758-0.0077,0.2639-0.0234  l6.2-1.107c0.252-0.045,0.4884-0.1537,0.6865-0.3159l0.506-0.4143c0.0142,0.0004,0.0284,0.0006,0.0426,0.0006  c0.3518,0,0.698-0.1238,0.9734-0.3586l1.2134-1.0347l5.9536-0.8817l1.3685-0.0619l4.4481,1.6303  c0.1675,0.0614,0.3423,0.0916,0.5161,0.0916c0.3033,0,0.6038-0.0919,0.8591-0.2703c0.1448-0.1011,0.2684-0.2254,0.3674-0.366  l5.3957,0.9305c0.0855,0.0147,0.171,0.0219,0.2555,0.0219c0.5798,0,1.118-0.337,1.3646-0.8787  c0.2825-0.6207,0.1108-1.3538-0.4179-1.7845l-1.6169-1.317l3.4277-3.7874c0.1843-0.2037,0.3052-0.449,0.3577-0.7076l2.6625-1.1745  c0.4365-0.1925,0.7553-0.5812,0.8588-1.0468l0.848-3.814c0.0525-0.2359,0.0471-0.4807-0.0153-0.7134  c0.1461-0.0081,0.2935-0.0212,0.441-0.0391c0.024-0.0029,0.0479-0.0063,0.0717-0.0104l0.234-0.04  c0.0175-0.003,0.0349-0.0063,0.0522-0.0099c0.2482-0.0515,0.4955-0.1186,0.7781-0.2109c0.0707-0.0231,0.1396-0.0515,0.2062-0.0848  l0.816-0.409c0.1559-0.0781,0.2963-0.1826,0.4154-0.3079c0.0367,0.0223,0.0747,0.0433,0.1138,0.0627l0.3534,0.1773  c0.5341,0.2694,1.0865,0.548,1.6993,0.7725c0.0338,0.0124,0.0679,0.0235,0.1024,0.0334l0.223,0.064  c0.1722,0.0446,0.3007,0.075,0.4327,0.1019c0.2355,0.0452,0.4619,0.0779,0.6849,0.0991c0.282,0.2456,0.6036,0.4811,0.9811,0.7199  c0.0339,0.0215,0.0687,0.0416,0.1043,0.0602l1.702,0.894c0.2172,0.1141,0.4568,0.1721,0.6976,0.1721  c0.1522,0,0.3047-0.0231,0.4525-0.0699c0.1869-0.0591,0.3583-0.1536,0.5062-0.2765l0.3865,0.1936  c0.211,0.1057,0.4412,0.1589,0.6719,0.1589c0.1977,0,0.3958-0.0391,0.5822-0.1176c0.404-0.1702,0.7133-0.5085,0.8467-0.9261  l0.1609-0.5041l0.0579-0.1782H79.62c0.513,0,0.9904-0.2621,1.2657-0.695C81.161,28.5742,81.196,28.0307,80.9785,27.5661z" class="outline" data-name="outline"/>
  <path id="color-5" fill="#FFFFFF" d="M24.0496,21.2349l-0.852,2.131l-0.853-2.024l0.853-0.746L24.0496,21.2349z" class="color-5" data-name="color-5"/>
  <path id="color-4" fill="#FFFFFF" d="M34.2918,39.2755l1.46,1.655l-2.141,1.751l-2.725,0.486l0.876-1.751l-2.7241,0.098l3.405-2.628  l1.363-0.195L34.2918,39.2755z M50.2126,37.2358l-0.065,0.6411l0.748,0.608l1.105,0.402v0.498l0.275,0.225l1.184-0.237l1.849-2.043  L50.2126,37.2358z" class="color-4" data-name="color-4"/>
  <path id="color-3" fill="#B82026" d="M33.5134,34.8974l-2.2,2.256l-3.659-1.211l0.897-1.434l3.892-1.46L33.5134,34.8974z   M12.0115,35.8204l0.828-0.4141l-0.9702-1.1774l0.1316,1.5801l0.0013,0.0161L12.0115,35.8204z M26.7473,33.05l-2.92,0.438  l-1.606,0.877c-2.307,3.46-2.096,4.675-6.277,3.795l-2.774,1.022l-1.314-0.876l1.2835-1.2729l0.5724-0.5677l0.2699,0.3275  c0.2359-0.0064,0.466-0.0419,0.6921-0.0972l-0.9186,0.9993l-0.2933,0.3191c1.827-0.41,3.197-1.026,4.017-1.89l0.481,0.25  c1.328-0.0031,2.354-0.612,3.128-1.724l0.841-1.502l-1.018,0.053l-0.687-1.511c-0.18-0.193-0.358-0.381-0.549-0.562  c-0.903-0.837-1.927-1.441-3.044-1.944c-0.453-0.2-0.894-0.419-1.373-0.553l-0.925,0.019l-0.584,1.131l0.253,0.664l0.242,0.34  c0.785,0.922,1.678,1.748,2.533,2.603l0.0284,0.4021l0.0066,0.0929l-1.2213,0.4995l-0.904-0.9026l-0.0568-0.2839l-0.0865,0.1407  l-2.7102-2.7061l0.8288-1.1707l0.017-0.024l-1.501-1.362l3.89-2.469c3.588-6.36,5.303-9.358,12.993-8.613l5.012-2.044  c1.979-0.065,3.828,0.227,4.769,1.46l-2.19,1.606l-1.8979,2.335l0.73,1.898l-0.73,0.293l1.752,2.919l-1.168-0.438l0.438,2.19  l-1.314-1.606l0.2921,2.19C32.9783,32.4551,31.5133,33.2891,26.7473,33.05z M24.0496,21.2349l-0.852-0.639l-0.853,0.746l0.853,2.024  L24.0496,21.2349z M6.7074,32.9024l-1.654-1.556l3.21,4.718l-0.486-1.848L6.7074,32.9024z M27.8438,15.7664l4.988-3.832l8.758-2.822  l8.757,1.946l4.656,2.4901l0.2079-0.057l0.195-1.071c-0.745-1.024-0.884-1.118-2.043-1.653l0.486-0.584  c-0.713-0.341-1.546-0.384-2.4319-0.292l0.973-0.973c-0.834-0.3391-1.707-0.482-2.627-0.39l1.265-1.07  c-1.622-0.151-3.244,0.044-4.866,0.584l2.628-2.043c-2.001,0.158-4.043,0.729-6.13,1.751l3.016-3.502  c-2.384,0.478-4.697,1.413-6.908,3.016l1.07-2.433c-2.259,1.104-4.302,2.725-6.13,4.865l0.584-2.821  c-2.136,1.796-3.658,3.923-4.67,6.324l0.097-2.5291c-1.209,1.21-2.142,2.8651-2.9189,4.767l0.584-3.211  c-1.188,1.028-2.005,2.203-2.553,3.486C25.8438,15.6653,26.8309,15.6833,27.8438,15.7664z M48.9835,37.4268l-1.167-0.097  l-0.292-0.876l-1.946,1.265l-3.795-0.389l-1.654,2.238l-0.583-0.584l-1.168,1.362l5.254-0.778l2.14-0.098l2.92,1.071v-0.487  l2.821,0.487l-2.627-2.141L48.9835,37.4268z M59.784,20.7885l-3.573-6.322l-1.353,0.368l-4.933-2.637l-8.278-1.839l-8.247,2.657  l-1.386,1.0649l0.809-0.33l0.609-0.014c1.453-0.003,2.876,0.152,4.161,0.879c0.416,0.259,0.75,0.535,1.077,0.901l0.899,1.117  l-3.08,2.259l-1.361,1.675l0.906,2.356l-0.521,0.208l2.799,4.665l-2.369-0.889l0.961,4.804l-2.168-2.65  c-0.182,0.826-0.423,1.594-0.783,2.36c-0.167,0.31-0.339,0.59-0.543,0.877c-0.002,0.003-0.004,0.005-0.006,0.008l0.917,1.585  l1.722-0.259l-1.218,1.1281l0.187,0.323l-1.461,1.499l2.083-0.92l2.876-2.335l-0.715-4.463l1.1021,0.097l0.357,1.266l2.725-1.46  v-2.53l1.167-1.946l1.849-3.5031l-0.194-1.459h0.486l0.486,0.778l0.389-0.973h0.487v1.168l-2.335,3.6l-0.779,2.238l0.6819,2.14  l1.07,0.681l2.627-0.291l2.822,0.486l2.432-0.681l0.487,0.389l-2.044,0.876l1.46,1.071l-0.487,0.292l-2.043-1.363l-3.892-0.292  l-4.281,1.363l-2.433,2.918l-3.503,2.53l-3.113,1.168l-0.078,0.13l1.059-0.152l0.906,1.087l0.65,0.736l0.479-0.342l0.284,1.208  v0.001l0.198,0.223l2.661-3.104l0.515,0.514l1.231-1.666l1.294,0.133l3.742-1.59l2.238-0.195l1.6541,1.168h0.779l0.875-0.973v1.362  l2.821-1.167l-0.388-2.044l0.777-0.097l0.195,1.168l2.433,0.097l3.308-1.46l0.584-2.627l-1.362-4.281L59.784,20.7885z   M64.0658,22.1511c-0.957-0.015-1.912,0.453-2.869,1.155l0.03,0.357l0.309,0.434l2.433-0.778l1.07,0.388l0.194,0.974l-1.264,0.681  l-1.168-0.973l-0.487,0.486l0.759,1.266c0.746,0.181,1.609,0.343,2.355-0.098c0.506-0.778,0.701-1.557,0.584-2.336  C65.6748,22.7221,65.0258,22.2031,64.0658,22.1511z M70.4865,22.6374c-0.622-0.589-1.401-0.946-2.334-1.07  c-0.676,0.018-1.281,0.143-1.814,0.374c0.1299,0.139,0.248,0.285,0.368,0.454c0.104,0.171,0.191,0.338,0.269,0.508  c1.119-0.118,2.29,0.02,3.511,0.416V22.6374z M77.1549,26.634c-0.13-0.324-0.389-0.551-0.778-0.681l0.097-0.973  c-1.642,0.432-1.651,0.571-3.211-0.097c-0.571-0.634-0.979-0.99-1.572-1.388l-1.117,1.105l0.062,0.088l-0.389,1.46  c0.718,0.371,1.488,0.505,2.335,0.292c0.324,0.584,0.811,1.038,1.46,1.362c0.161-0.292,0.226-0.584,0.194-0.876l1.557,0.779  c0.117-0.357,0.174-0.714,0.097-1.071H77.1549z M9.824,33.4692l-0.0247,0.0349l-3.072-3.64l-1.33,0.153l2.192,2.063l1.285,1.578  l0.709,2.692l0.959-0.088l0.7372-1.2286l0.5279-0.8798l-1.3275-1.611L9.824,33.4692z" class="color-3" data-name="color-3"/>
  <path id="color-2" fill="#040404" d="M78.481,25.7691c-0.134-0.213-0.271-0.4301-0.45-0.6071l0.227-2.276  c-1.018,0.27-2.036,0.544-3.053,0.812c-0.126,0.032-0.253,0.069-0.382,0.077c-0.224-0.016-0.436-0.118-0.639-0.205  c-0.37-0.39-0.767-0.745-1.193-1.073c-0.388-0.291-0.801-0.547-1.211-0.803c-0.199-0.18-0.393-0.359-0.603-0.525  c-0.183-0.137-0.369-0.266-0.563-0.388c-0.419-0.253-0.88-0.434-1.35-0.572l-0.277-0.072c-0.249-0.057-0.498-0.102-0.751-0.142  l-0.588,0.031c-0.228,0.027-0.452,0.059-0.679,0.1l-0.643,0.16c-0.403,0.129-0.785,0.287-1.157,0.492l-0.156-0.05  c-0.172-0.045-0.34-0.08-0.518-0.108c-0.184-0.021-0.364-0.033-0.551-0.037c-0.2141,0.012-0.422,0.032-0.635,0.061  c-0.203,0.037-0.399,0.08-0.599,0.132c-0.456,0.138-0.891,0.314-1.31,0.544l-0.081-1.003l-4.189-7.409l-0.2-0.108l0.139-0.762  l-0.174-0.237c-0.359-0.497-0.711-1.008-1.164-1.429l0.65-0.779l-1.7-0.75l0.502-0.502c-0.331-0.132-0.663-0.262-0.996-0.398  c-0.294-0.118-0.589-0.239-0.885-0.355l1.617-1.369l-1.093-0.095c-0.79-0.071-1.581-0.149-2.373-0.211l2.48-1.928l-5.476,0.4691  c-0.333,0.035-0.666,0.077-0.998,0.125l2.414-2.803l-4.749,0.986c-1.044,0.235-2.071,0.528-3.068,0.921l0.96-2.183l-4.098,2.038  c-0.931,0.488-1.83,1.03-2.677,1.653l0.513-2.48l-1.146,0.977c-1.441,1.2141-2.931,2.399-4.198,3.8l0.031-0.821l-2.966,3.032  c-0.291,0.313-0.571,0.63-0.83,0.969l-0.644-0.195c-0.423,0.375-0.851,0.741-1.2531,1.136c-0.494,0.492-0.927,1.035-1.325,1.606  l-0.296,0.458c-0.357,0.604-0.671,1.223-0.921,1.88c-0.079,0.013-0.161,0.028-0.241,0.043c-0.546,0.134-1.081,0.292-1.612,0.481  c-0.125,0.054-0.25,0.11-0.374,0.168c-0.422,0.198-0.848,0.409-1.235,0.67c-0.45,0.31-0.893,0.6349-1.291,1.011  c-0.188,0.182-0.372,0.366-0.552,0.555c-0.286,0.306-0.568,0.619-0.822,0.95l-1.131,1.606c-0.726,1.118-1.385,2.275-2.04,3.434  l-2.799,1.668l2.893-8.367l-4.135,2.567c-0.357,0.239-0.703,0.486-1.036,0.757l-0.212-4.833l-0.777,1.149  c-0.376,0.551-0.756,1.099-1.132,1.649c-0.523,0.771-1.044,1.547-1.494,2.364c-0.151,0.284-0.293,0.571-0.429,0.863  c-0.196,0.443-0.368,0.887-0.522,1.345c-0.116,0.366-0.221,0.732-0.305,1.106c-0.083,0.403-0.15,0.808-0.213,1.215l0.692,2.611  l-2.939,0.43l2.066,2.913l4.183,5.99l0.173,0.177l2.324-0.212l0.111,1.327l2.607,1.739l3.107-1.145  c0.407,0.077,0.815,0.134,1.225,0.179c0.544,0.054,1.088,0.043,1.627-0.036c0.121-0.021,0.242-0.044,0.361-0.07  c0.309-0.073,0.604-0.205,0.886-0.345c0.199-0.104,0.3701-0.237,0.547-0.371l0.366-0.328l0.33-0.357  c0.15-0.184,0.293-0.367,0.427-0.561c0.516-0.767,0.974-1.569,1.476-2.342l1.0179-0.556l2.276-0.341l-1.342,2.147l5.114,1.694  l-6.167,4.757l4.964-0.177l-1.091,2.183l6.2-1.107l1.406-1.151l0.093,0.398l1.541-1.314l6.455-0.956l1.746-0.079l4.731,1.734v-0.87  l6.877,1.186l-2.842-2.315l4.488-4.959l-2.428-0.045l0.051-0.022l-0.061-0.319l1.599,0.064l4.366-1.926l0.848-3.814l-0.687-2.157  c0.401,0.095,0.798,0.183,1.204,0.242c0.396,0.052,0.797,0.047,1.192-0.001l0.234-0.04c0.212-0.044,0.412-0.101,0.617-0.168  l0.816-0.409c0.216-0.348,0.441-0.695,0.613-1.067c0.115-0.264,0.212-0.527,0.292-0.804c0.079-0.307,0.132-0.608,0.156-0.925  c0.329-0.01,0.6609,0.005,0.986,0.051l0.352,0.503l-0.5309,1.994c0.627,0.311,1.244,0.644,1.902,0.885l0.223,0.064  c0.106,0.027,0.211,0.052,0.319,0.074c0.339,0.065,0.674,0.099,1.021,0.098c0.335,0.366,0.728,0.658,1.147,0.923l1.702,0.894  l0.41-0.799l1.607,0.8051l0.1609-0.504c0.13-0.407,0.27-0.812,0.389-1.222h2.337L78.481,25.7691z M27.3839,12.2264l-0.584,3.211  c0.777-1.902,1.71-3.557,2.9189-4.767l-0.097,2.5291c1.012-2.401,2.534-4.528,4.67-6.324l-0.584,2.821  c1.828-2.14,3.871-3.761,6.13-4.865l-1.07,2.433c2.211-1.603,4.524-2.538,6.908-3.016l-3.016,3.502  c2.087-1.022,4.129-1.593,6.13-1.751l-2.628,2.043c1.6219-0.54,3.244-0.735,4.866-0.584l-1.265,1.07  c0.92-0.092,1.793,0.051,2.627,0.39l-0.973,0.973c0.886-0.092,1.719-0.049,2.4319,0.292l-0.486,0.584  c1.159,0.535,1.298,0.629,2.043,1.653l-0.195,1.071l-0.2079,0.057l-4.656-2.4901l-8.757-1.946l-8.758,2.822l-4.988,3.832  c-1.0129-0.083-2-0.101-3.0129-0.054C25.3789,14.4294,26.1959,13.2544,27.3839,12.2264z M7.923,24.8759  c0.707-1.3849,1.156-2.229,3.153-3.445l-1.498,4.32l-0.292,2.336l2.2665,2.2632l0.2809,0.2806l2.7102,2.7061l0.1433,0.1431  l0.904,0.9026l0.968,0.9666l0.157,0.1568c-0.4807,0.4486-0.9847,0.7812-1.5111,1.0017c-0.1748,0.0732-0.3501,0.1439-0.5307,0.188  c-0.2261,0.0553-0.4562,0.0908-0.6921,0.0972l-0.2699-0.3275l-0.8726-1.059l-0.9702-1.1774l-0.062-0.0753l-1.3275-1.611  l-0.2955-0.3586L7.048,28.3779C7.146,27.0809,7.437,25.9139,7.923,24.8759z M12.0115,35.8204l-0.0093,0.0046l-0.0013-0.0161  L12.0115,35.8204z M7.2609,21.0797l0.101,2.2889c-0.257,0.431-0.483,0.882-0.678,1.332c-0.429,1.032-0.681,2.096-0.8,3.2  l-0.538-2.033C5.586,24.1917,6.224,22.5956,7.2609,21.0797z M5.0534,31.3464l1.654,1.556l1.07,1.314l0.486,1.848L5.0534,31.3464z   M10.5423,36.2621l-0.959,0.088l-0.709-2.692l-1.285-1.578l-2.192-2.063l1.33-0.153l3.072,3.64l0.0247-0.0349l1.4554,1.5643  L10.5423,36.2621z M23.8273,33.488l-1.606,0.877c-2.307,3.46-2.096,4.675-6.277,3.795l-2.774,1.022l-1.314-0.876l1.2835-1.2729  l0.6158,0.6619l-0.2933,0.3191c1.827-0.41,3.197-1.026,4.017-1.89l0.481,0.25c1.328-0.0031,2.354-0.612,3.128-1.724l0.841-1.502  l-1.018,0.053l-0.687-1.511c-0.18-0.193-0.358-0.381-0.549-0.562c-0.903-0.837-1.927-1.441-3.044-1.944  c-0.453-0.2-0.894-0.419-1.373-0.553l-0.925,0.019l-0.584,1.131l0.253,0.664l0.242,0.34c0.785,0.922,1.678,1.748,2.533,2.603  l0.0284,0.4021L12.6623,29.46l0.017-0.024l-1.501-1.362l3.89-2.469c3.588-6.36,5.303-9.358,12.993-8.613l5.012-2.044  c1.979-0.065,3.828,0.227,4.769,1.46l-2.19,1.606l-1.8979,2.335l0.73,1.898l-0.73,0.293l1.752,2.919l-1.168-0.438l0.438,2.19  l-1.314-1.606l0.2921,2.19c-0.776,4.66-2.241,5.494-7.007,5.255L23.8273,33.488z M15.6614,30.5699  c-0.916-1.011-0.735-0.811,0.252-0.386c1.216,0.522,2.365,1.171,3.297,2.184l1.032,1.978c-0.46,0.705-1.062,1.174-1.976,1.123  l-0.321-2.6151L15.6614,30.5699z M27.6544,35.9424l0.897-1.434l3.892-1.46l1.07,1.849l-2.2,2.256L27.6544,35.9424z M33.6109,42.6815  l-2.725,0.486l0.876-1.751l-2.7241,0.098l3.405-2.628l1.363-0.195l0.486,0.584l1.46,1.655L33.6109,42.6815z M48.6926,40.0538v0.487  l-2.92-1.071l-2.14,0.098l-5.254,0.778l1.168-1.362l0.583,0.584l1.654-2.238l3.795,0.389l1.946-1.265l0.292,0.876l1.167,0.097  l-0.097,0.973l2.627,2.141L48.6926,40.0538z M53.4595,39.3729l-1.184,0.237l-0.275-0.225v-0.498l-1.105-0.402l-0.748-0.608  l0.065-0.6411l5.0959,0.0941L53.4595,39.3729z M60.952,32.4645l-3.308,1.46l-2.433-0.097l-0.195-1.168l-0.777,0.097l0.388,2.044  l-2.821,1.167v-1.362l-0.875,0.973h-0.779l-1.6541-1.168l-2.238,0.195l-3.742,1.59l-1.294-0.133l-1.231,1.666l-0.515-0.514  l-2.661,3.104l-0.198-0.223v-0.001l-0.284-1.208l-0.479,0.342l-0.65-0.736l-0.906-1.087l-1.059,0.152l0.078-0.13l3.113-1.168  l3.503-2.53l2.433-2.918l4.281-1.363l3.892,0.292l2.043,1.363l0.487-0.292l-1.46-1.071l2.044-0.876l-0.487-0.389l-2.432,0.681  l-2.822-0.486l-2.627,0.291l-1.07-0.681l-0.6819-2.14l0.779-2.238l2.335-3.6v-1.168h-0.487l-0.389,0.973l-0.486-0.778h-0.486  l0.194,1.459l-1.849,3.5031l-1.167,1.946v2.53l-2.725,1.46l-0.357-1.266l-1.1021-0.097l0.715,4.463l-2.876,2.335l-2.083,0.92  l1.461-1.499l-0.187-0.323l1.218-1.1281l-1.722,0.259l-0.917-1.585c0.002-0.003,0.004-0.005,0.006-0.008  c0.204-0.287,0.376-0.567,0.543-0.877c0.36-0.766,0.601-1.534,0.783-2.36l2.168,2.65l-0.961-4.804l2.369,0.889l-2.799-4.665  l0.521-0.208l-0.906-2.356l1.361-1.675l3.08-2.259l-0.899-1.117c-0.327-0.366-0.6609-0.642-1.077-0.901  c-1.285-0.727-2.708-0.882-4.161-0.879l-0.609,0.014l-0.809,0.33l1.386-1.0649l8.247-2.657l8.278,1.839l4.933,2.637l1.353-0.368  l3.573,6.322l0.39,4.768l1.362,4.281L60.952,32.4645z M65.4277,26.0432c-0.746,0.441-1.609,0.279-2.355,0.098l-0.759-1.266  l0.487-0.486l1.168,0.973l1.264-0.681l-0.194-0.974l-1.07-0.388l-2.433,0.778l-0.309-0.434l-0.03-0.357  c0.957-0.702,1.912-1.17,2.869-1.155c0.96,0.052,1.609,0.571,1.946,1.556C66.1287,24.4861,65.9337,25.2651,65.4277,26.0432z   M66.9755,22.9034c-0.078-0.17-0.165-0.337-0.269-0.508c-0.12-0.169-0.238-0.315-0.368-0.454c0.533-0.231,1.1379-0.356,1.814-0.374  c0.933,0.124,1.712,0.481,2.334,1.07v0.682C69.2655,22.9234,68.0946,22.7854,66.9755,22.9034z M75.8898,26.634  c0.077,0.357,0.02,0.714-0.097,1.071l-1.557-0.779c0.032,0.292-0.033,0.584-0.194,0.876c-0.649-0.324-1.136-0.778-1.46-1.362  c-0.847,0.213-1.617,0.079-2.335-0.292l0.389-1.46l-0.062-0.088l1.117-1.105c0.593,0.398,1.001,0.754,1.572,1.388  c1.56,0.668,1.569,0.5291,3.211,0.097l-0.097,0.973c0.389,0.13,0.648,0.357,0.778,0.681H75.8898z M25.6003,23.968l-1.8,0.917  l-2.1-0.641l1.875-0.092l0.75-1.192l0.675-2.016l2.851-0.825l-4.351-0.55l-3.075,2.933h-0.9l1.575,2.933l2.625,0.366L25.6003,23.968  z M23.1976,20.5959l0.852,0.639l-0.852,2.131l-0.853-2.024L23.1976,20.5959z M28.746,27.7941l-5.741,1.947l4.768-2.725l0.973-3.795  l1.07,0.292L28.746,27.7941z M29.7191,20.3025l-0.487-1.849l3.795-1.946l2.919-0.097l-1.752,2.043l-0.778-0.097l0.5829-1.362  l-2.185,1.058l-1.804,1.374L29.7191,20.3025z" class="color-2" data-name="color-2"/>
  <path id="color-1" fill="#FFFFFF" d="M20.2424,34.3459c-0.46,0.705-1.062,1.174-1.976,1.123l-0.321-2.6151l-2.2841-2.284  c-0.916-1.011-0.735-0.811,0.252-0.386c1.216,0.522,2.365,1.171,3.297,2.184L20.2424,34.3459z M7.2609,21.0797  c-1.037,1.516-1.675,3.112-1.915,4.788l0.538,2.033c0.119-1.104,0.371-2.168,0.8-3.2c0.195-0.45,0.421-0.901,0.678-1.332  L7.2609,21.0797z M15.591,34.3826l-0.904-0.9026l-0.1433-0.1431l-2.7102-2.7061l-0.2809-0.2806L9.286,28.0869l0.292-2.336  l1.498-4.32c-1.997,1.216-2.446,2.0601-3.153,3.445c-0.486,1.038-0.777,2.205-0.875,3.502l3.1363,3.8062l0.2955,0.3586l1.3275,1.611  l0.062,0.0753l0.9702,1.1774l0.8726,1.059l0.2699,0.3275c0.2359-0.0064,0.466-0.0419,0.6921-0.0972  c0.1806-0.0442,0.3559-0.1149,0.5307-0.188c0.5264-0.2205,1.0305-0.5531,1.5111-1.0017l-0.157-0.1568L15.591,34.3826z" class="color-1" data-name="color-1"/>
</svg>