<?xml version="1.0" encoding="utf-8"?>
<svg xmlns="http://www.w3.org/2000/svg" xmlns:xlink="http://www.w3.org/1999/xlink" version="1.1" id="VIPR001" x="0px" y="0px" viewBox="0 0 81.5616 84.3862" enable-background="new 0 0 81.5616 84.3862" xml:space="preserve" data-colorable="mascot">
  <path id="outline" fill="#5F6162" d="M73.8833,16.5865c-0.081-0.4361-0.1604-0.8723-0.236-1.3083  c0.0606-0.3493,0.1322-0.7449,0.2095-1.172c1.0648-5.8845,1.3414-8.5461,0.2974-9.796c-0.3763-0.4505-0.9011-0.6986-1.4775-0.6986  c-0.3278,0-0.658,0.0818-0.9824,0.2433c-0.512,0.1716-3.2139,0.5964-6.635,0.5964c-2.3745,0-4.5289-0.2113-6.2392-0.6116  C52.0877,1.2564,46.0263,0.0002,40.2933,0c-5.7927-0.0002-11.5157,1.2713-17.4948,3.8871c-1.9093,0.7244-4.2704,1.1072-6.831,1.1072  c-3.189,0-5.614-0.5944-6.0415-0.8309C9.5852,3.9341,9.2048,3.8112,8.8163,3.8109c0,0-0.0008,0-0.0012,0  C8.2694,3.8109,7.7576,4.0611,7.411,4.4974c-0.3925,0.4942-1.3061,1.644,0.8039,10.8127c-0.0898,0.4766-0.179,0.9529-0.2648,1.429  c-4.6116,1.759-6.9963,5.4779-7.6956,8.4968c-1.0607,4.4861,1.1973,9.5219,6.7127,14.9607  c2.5912,2.5399,5.3219,4.7249,8.3379,6.6714c0.2504,0.6019,0.4906,1.1921,0.7258,1.7701c2.1738,5.3414,4.0609,9.9794,9.6848,13.0846  c1.2169,4.6998,3.9432,8.116,7.798,9.8065c-0.0291,0.0848-0.0563,0.1688-0.0815,0.2521c-0.6329,2.0847-0.5381,4.212,0.2821,6.3212  c0.722,1.8392,2.0267,3.7397,3.9904,5.8146c0.2894,0.3058,0.6859,0.469,1.0898,0.469c0.199,0,0.3998-0.0396,0.5905-0.1213  l0.1141-0.0489c0.3472-0.1488,0.6136-0.4163,0.7659-0.739c0.2073-0.3898,0.2387-0.864,0.0557-1.2932l-0.0315-0.0818l-0.0051-0.0131  L40.176,81.577l-0.1247-0.5912l-0.0229-0.1075c-0.0568-0.2657-0.1111-0.5194-0.1619-0.7625  c1.2602,0.7209,2.7214,1.1146,4.3495,1.1721l0.0621,0.0078c0.0621,0.0077,0.1241,0.0115,0.1857,0.0115  c0.5239,0,1.0158-0.2747,1.2885-0.7326c0.3047-0.5117,0.2778-1.1551-0.0685-1.6396l-0.0815-0.114  c-0.0174-0.0244-0.0356-0.0483-0.0544-0.0716c-0.1654-0.2043-0.3536-0.4316-0.558-0.6782l-0.4426-0.5356  c-1.0172-1.2192-2.4235-2.9045-3.0788-4.4349c6.1306-0.5786,13.3874-4.0857,15.4929-12.3798  c5.1968-4.1752,7.9442-8.9218,10.7805-15.5665c5.7897-3.4219,13.4088-8.1264,13.7834-16.9749  C81.6417,25.4569,81.944,18.4045,73.8833,16.5865z" class="outline" data-name="outline"/>
  <path id="color-5" fill="#FDED00" d="M18.6439,16.6471c0.0815,1.9875,0.5376,3.975,1.8409,5.9625  c-0.9123,1.6454-2.1179,1.0915-3.3397,0.228c-2.6392-1.8083-2.8835-5.0176-2.4274-7.1354c0.5865-0.5376,1.3848-0.6191,1.9713-0.2281  c-0.5051,2.688-0.2444,4.8384,0.9123,6.663C17.585,19.9541,17.4384,17.8852,18.6439,16.6471z M66.8489,14.7736  c-0.5865-0.5539-1.3848-0.6191-1.9712-0.2281c0.505,2.688,0.2443,4.8221-0.9123,6.663c0.0162-2.183,0.1629-4.252-1.0427-5.5063  c-0.0814,1.9875-0.5376,3.975-1.8409,5.9625c0.9123,1.6454,2.1016,1.0915,3.3397,0.2443  C67.0607,20.0844,67.305,16.8752,66.8489,14.7736z" class="color-5" data-name="color-5"/>
  <path id="color-4" fill="#5F6162" d="M40.8402,63.7123c-0.3737,0.7803-0.8915,1.4534-1.4742,2.101l-0.4072,0.4561  c-0.8043,0.8974-1.7021,1.9014-2.4713,2.9529c-4.8946-2.2047-6.0617-4.1733-8.3459-10.2023  c1.3196,1.8083,1.6943,2.7206,4.9525,4.5289c0.066,0.066,0.236,0.2699,0.4918,0.505c0.2156,0.2457,0.4812,0.4241,0.7686,0.565  c0.6417,0.3646,1.4865,0.5781,2.4587,0.1398c0.3754-0.1249,0.6968-0.3168,0.9515-0.5646  C38.2041,64.0846,39.4838,63.2964,40.8402,63.7123z M16.9496,38.0208c1.0915,3.5351,2.1993,7.0865,3.3071,10.6217  c1.9224,4.7733,4.0076,8.9926,7.2006,9.3347c-3.2908-6.5327-5.4412-13.0654-6.8422-19.6143  C19.0675,38.7213,17.8456,38.6073,16.9496,38.0208z M61.1145,38.3629c-1.401,6.549-3.5677,13.0817-6.8422,19.6143  c3.1931-0.3421,5.2783-4.5615,7.2006-9.3347c1.1078-3.5352,2.1993-7.0866,3.3071-10.6217  C63.8676,38.6073,62.6458,38.7213,61.1145,38.3629z M48.917,62.9302c-0.0015,0.0104-0.0029,0.0217-0.0045,0.0321  c-0.8441,2.0292-3.789,2.0833-4.8252,0.923c-0.0594,0.0439-0.1193,0.0883-0.1954,0.1524c-0.7866,1.9309-2.0532,3.5685-3.2063,5.05  l-0.4073,0.5213c-0.0804,0.1047-0.1394,0.2137-0.2043,0.3216c8.3806-0.5723,12.9249-6.6928,13.9377-11.1551  C52.2304,60.6539,51.0429,62.1443,48.917,62.9302z M76.9004,28.5395c-1.1078,5.7996-6.0439,8.6994-11.8761,12.0717  c1.3847-2.688,2.5577-5.4249,2.1015-8.4225c1.173,0,2.3459,0,3.5189,0c-1.2544-2.574-3.1279-3.2745-5.6204-2.1015  c0,0.8634,0,1.7106,0,2.574c-3.7795,2.4111-7.7871,3.9913-14.0265,4.5289c-12.0228-2.1341-8.3735-2.5251-20.3963-0.0651  c-6.7607-0.3096-10.8661-1.6617-13.9451-4.4637c0-0.8634,0-1.7106,0-2.574c-2.8347-0.8635-4.3334,0.4724-5.6204,2.1015  c1.173,0,2.3459,0,3.5189,0c-0.505,2.8021,0.4562,5.6204,2.1016,8.4225c-3.8121-2.0201-7.1843-4.5289-10.0841-7.4776  c-4.6918-6.0602-2.0201-11.6969,4.9199-13.326c-0.1466-1.955,0.3258-3.4374,1.4173-4.4474c1.0589,6.549,2.8835,12.8373,8.455,8.4224  c2.6229,5.0339,7.6242,2.8672,6.7933-2.3459C19.9961,32.547,19.377,1.5127,12.437,13.2585  c-0.7005-0.7819-2.4437-4.5289-1.5314-5.376c5.6855,2.0852,9.4651,0.505,13.1469-0.1955c-0.4888,3.9098,1.6942,4.8384,3.975,5.8484  c1.9875,0.8634,2.2808,4.9199,3.3071,8.4224c1.5314-13.1143-3.8284-8.4224-5.2783-14.5316  c0.1629-0.0163,0.3095-0.0163,0.4561-0.0163c6.8911-4.0076,17.4965-5.1317,28.4441-0.0977  c-1.8083,5.4575-7.6405,1.124-5.7996,14.1894c1.1078-3.7469,2.0038-7.7708,4.0402-8.6667c2.2482-0.9938,4.252-1.5966,3.8773-4.8873  c3.8121,0.7168,11.6481,1.1241,13.1631-0.0977c1.6292,1.401-0.7493,5.2457-0.9937,5.4086  c-7.9663-13.1142-5.262,16.7797-16.0629,8.1781c1.1241,5.7833,5.262,4.5452,7.1354,2.3459c6.0277,2.7858,7.559-2.5088,8.455-8.4224  c1.4011,1.3196,1.8572,2.8021,1.4174,4.4474C75.3202,20.2799,77.7964,23.864,76.9004,28.5395z M32.4424,32.3027  c-0.4724-1.9712-1.6291-3.7306-3.4863-5.262c-1.287,1.3685-1.1567,2.7206-0.391,4.0728c0.391,0.6843,1.5477,0,1.9386,0  C31.416,30.9505,31.5464,31.5696,32.4424,32.3027z M52.464,27.0407c-1.8409,1.5314-3.0139,3.2908-3.4863,5.262  c0.9123-0.7331,1.0426-1.3522,1.9387-1.1893c0.3909,0,1.5476,0.6843,1.9386,0C53.6369,29.7613,53.7672,28.4091,52.464,27.0407z" class="color-4" data-name="color-4"/>
  <path id="color-3" fill="#FFFFFF" d="M49.4837,52.5172c1.2217-5.6185-0.6117-11.1689-2.3746-12.6863  c-0.114-0.1675-0.2088-0.3423-0.3307-0.5068c2.1281,0.512,4.5341,0.9095,6.0857,0.5378c0.4562,5.5981-0.6522,8.1974-3.4496,13.1498  C49.4435,52.8454,49.4582,52.6828,49.4837,52.5172z M37.3943,62.2026c-0.1704-0.5726-0.3349-1.1991-0.4902-1.8709  c-0.0176-0.0762-0.0334-0.1528-0.0507-0.2291c-0.1688-0.7488-0.3271-1.5392-0.4713-2.3506  c-0.1616-0.8793-0.2873-1.7654-0.4131-2.6512c-0.2332-1.7176-0.3928-3.3846-0.4476-4.7477  c-2.3325,2.6436-3.3225,6.9066-2.7147,11.1494c0.0927,0.6465,0.2171,1.2924,0.3851,1.9323c0.1012,0.2374,0.2374,0.4405,0.394,0.619  c0.2036,0.1871,0.4639,0.3919,0.7686,0.565c0.759,0.3723,1.686,0.3969,2.4587,0.1398c0.2769-0.1248,0.5633-0.2997,0.8586-0.5419  c0.0222,0,0.0619-0.015,0.0929-0.0226c0.0857-0.0833,0.1833-0.1583,0.2492-0.2543c-0.0821-0.1823-0.1633-0.3832-0.2436-0.5975  C37.642,63,37.5168,62.6142,37.3943,62.2026z M44.6838,61.6988c-0.2071,0.7772-0.4146,1.5157-0.6097,2.1758  c0.0036,0.0042,0.0095,0.0067,0.0132,0.0107c1.0362,1.1603,3.9811,1.1062,4.8252-0.923c0.0016-0.0104,0.0029-0.0217,0.0045-0.0321  c0.0414-0.2782,0.0793-0.567,0.1149-0.8611c0.4375-3.6149,0.3412-8.3372-2.6934-11.7322  C46.3385,54.6136,45.5141,58.5828,44.6838,61.6988z M35.7162,39.5293c0.0556-0.0684,0.106-0.1368,0.1635-0.2051  c-2.1667,0.5213-6.4023,0.896-7.9337,0.4887c-0.0236,0.165-0.038,0.3364-0.0558,0.5055c-0.4749,4.5046,1.0839,10.3583,4.6011,12.902  c0-0.0056,0.0001-0.0107,0.0001-0.0163c0.0003-0.1256,0.0018-0.2421,0.0024-0.3654c0.0041-0.8508,0.0159-1.6492,0.0382-2.3992  c0.0573-1.9296,0.1901-3.5504,0.4614-4.9767C33.4338,43.148,34.2469,41.3352,35.7162,39.5293z" class="color-3" data-name="color-3"/>
  <path id="color-2" fill="#DD2825" d="M32.8066,61.5025c0.0222,0.2336,0.03,0.4542,0.0593,0.6941  c-6.1091-4.3986-7.9174-11.8924-9.5628-19.484c0.7005-0.3584,2.0038,2.7206,2.0038,2.7206c0.1955-0.0488,0.391-0.0814,0.5865-0.1303  c-0.1955-1.8409-0.391-3.6981-0.5865-5.5389c0.8634,0,1.7268,0,2.5903,0c-0.0091,0.1868-0.0016,0.3687-0.007,0.5544  c-0.4749,4.5046,1.0839,10.3583,4.6011,12.902c0-0.0056,0.0001-0.0107,0.0001-0.0163c0.0059,0.0051,0.0103,0.0112,0.0162,0.0163  c-0.0058-0.0933-0.0104-0.2236-0.0137-0.3817c0.0041-0.8508,0.0159-1.6492,0.0382-2.3992c0.0607-1.452,0.1953-3.2542,0.4614-4.9767  c0.4404-2.3147,1.2535-4.1275,2.7228-5.9334c0.0277-0.0074,0.0539-0.0202,0.0821-0.0259c0.9731,1.2488,1.2852,2.8848,2.2525,4.137  c-2.3431,4.7886-1.2627,6.7227,0.4355,9.7103c0.5213,0.9286,1.1241,1.9713,1.678,3.2419c1.1567,2.6066,1.3847,4.4149,1.1241,5.8322  c-0.0181,0.0918-0.0547,0.1691-0.077,0.2577c-1.0775-0.0787-2.3608-0.1404-3.4411,0.6599c-0.1283-0.3422-0.2535-0.728-0.376-1.1396  c-0.168-0.6224-0.3445-1.2423-0.4902-1.8709c-0.0173-0.0748-0.0336-0.1534-0.0507-0.2291c-0.177-0.7789-0.3268-1.5642-0.4713-2.3506  c-0.4583-2.579-0.7778-5.336-0.8607-7.3989C33.1888,52.9967,32.1988,57.2597,32.8066,61.5025z M56.553,45.3192  c-0.1955-0.0326-0.391-0.0652-0.5865-0.114c0.1955-1.8409,0.391-3.6981,0.5865-5.5552c-0.8634,0-2.8347,0.0814-3.6981,0.0814  c0.0038,0.045,0.0055,0.086,0.0092,0.1306c0.4562,5.5981-0.6522,8.1974-3.4496,13.1498c-0.0213,0.0378-0.0406,0.0728-0.0621,0.1108  c0.0519-0.2018,0.0875-0.4035,0.1313-0.6053c1.2217-5.6185-0.6117-11.1689-2.3746-12.6863  c-0.2392-0.2059-0.4771-0.3456-0.7054-0.3928c-0.9938,1.2707-1.6291,2.8509-2.6066,4.1216  c-0.9834,0.7953-1.7177,1.4172-2.2485,1.9745c-0.9453,1.2445-1.1737,1.723-0.9933,2.7498c0.2281,1.2381,1.1404,3.1931,2.2482,5.6041  l0.6679,1.4011c1.2733,2.7717,1.4042,5.1042,0.9384,7.1283c0.0955-0.2391,0.1849-0.479,0.2741-0.7188  c0.8303-3.116,1.6547-7.0851,1.6547-11.3619c3.0345,3.3951,3.1309,8.1173,2.6934,11.7322  c6.0773-4.4185,7.8668-11.879,9.5249-19.4542C57.8563,42.2565,56.553,45.3192,56.553,45.3192z M39.8711,41.6537  c0.3746-0.114,0.7819-0.1466,1.1403-0.0652c0.3747,0.0815,0.7168,0.2607,0.9938,0.5213c0.3344,0.3344,0.5707,0.8064,0.6501,1.4128  c0.4432-0.7388,0.8544-2.0334,0.8975-3.0256c-0.0326-3.0627-3.9913-3.861-5.3109-1.401c-0.4783,0.9567-0.0913,2.4155,0.4034,3.4684  C38.9865,42.1145,39.419,41.8084,39.8711,41.6537z M39.4933,71.8488c-0.0422-0.6627,0.0816-1.3048,0.4229-1.9069  c0.0792-0.1398,0.1605-0.2794,0.2644-0.4144l0.4073-0.5213c1.1028-1.4119,2.3094-2.9677,3.0941-4.7885  c0.4021-0.9331,0.6843-1.9398,0.7921-3.0296c0.1191-1.2027,0.0122-2.5115-0.41-3.9478c-0.1799-0.6121-0.4036-1.2418-0.7067-1.9022  l-0.6517-1.4011c-0.1062-0.226-0.2081-0.4436-0.3099-0.6612c-0.8093-1.7293-1.4655-3.1859-1.7856-4.2823  c-0.0723-0.2476-0.1336-0.4836-0.169-0.6931c-0.228-1.2544,0.1304-1.7106,1.564-3.5515l0.5702-0.7331  c0-0.1188-0.0166-0.2234-0.0273-0.3333c-0.0626-0.643-0.2904-1.1411-0.6244-1.475c-0.2606-0.2607-0.5864-0.4236-0.9286-0.4887  c-0.3584-0.0815-0.7168-0.0652-1.0752,0.0651c-0.4575,0.136-0.8857,0.4428-1.2157,0.9026  c-0.1047,0.1459-0.2007,0.3056-0.2831,0.4822c-0.3264,0.6308-0.595,1.2121-0.8139,1.754c-1.5623,3.8665-0.5377,5.6765,0.9769,8.3627  c0.366,0.6433,0.7619,1.3387,1.1523,2.1137c0.183,0.3633,0.3651,0.7389,0.5419,1.1445c0.668,1.5146,1.0241,2.7623,1.1589,3.8275  c0.0113,0.0751,0.0215,0.1492,0.0305,0.2228c0.0031,0.031,0.0056,0.0616,0.0083,0.0923c0.0363,0.4136,0.0373,0.7984,0.0068,1.158  c-0.0175,0.2063-0.0435,0.4058-0.0803,0.5967c-0.0927,0.4799-0.2573,0.9028-0.4485,1.3055c-0.38,0.8002-0.9103,1.4871-1.5064,2.1482  l-0.4073,0.4562c-0.7923,0.8849-1.6775,1.8798-2.4382,2.9219c-0.5914,0.8101-1.0966,1.6483-1.4291,2.4879  c-0.0665,0.168-0.138,0.336-0.1891,0.5038c-0.5539,1.7757-0.4398,3.5188,0.2444,5.2457c0.6679,1.6943,1.8572,3.3885,3.5189,5.1317  c-0.0076-0.0357-0.0153-0.0688-0.0229-0.1045c-0.0599-0.2791-0.1196-0.548-0.1795-0.8177  c-0.0303-0.1364-0.0605-0.2825-0.0908-0.4136c-0.4724-2.2156-0.7982-3.7469-0.505-5.4249l0.1119-0.016l0.0021-0.0003  c0.0012,0.0024,0.0026,0.0043,0.0038,0.0067c0.6512,1.3156,1.5292,2.1774,2.4724,2.7628c0.7616,0.461,1.5604,0.7158,2.3173,0.8628  c0.4406,0.0856,0.8665,0.1403,1.2567,0.1561c0.0292,0.0012,0.0627,0.0065,0.0916,0.0074c-0.2607-0.3095-0.5702-0.6842-0.896-1.0915  C41.766,76.7254,39.641,74.1693,39.4933,71.8488z" class="color-2" data-name="color-2"/>
  <path id="color-1" fill="#040404" d="M32.4938,52.8386c0.0033,0.1581,0.0079,0.2885,0.0137,0.3817  c-0.0059-0.0051-0.0103-0.0112-0.0162-0.0163C32.4917,53.0784,32.4932,52.9619,32.4938,52.8386z M34.3544,64.6188  c0.6417,0.3646,1.4865,0.5781,2.4587,0.1398C36.0404,65.0157,35.1134,64.9911,34.3544,64.6188z M32.9934,45.4627  c-0.2714,1.4263-0.4041,3.0471-0.4614,4.9767C32.5927,48.9875,32.7273,47.1853,32.9934,45.4627z M36.8533,60.1026  c-0.177-0.7789-0.3268-1.5642-0.4713-2.3506C36.5262,58.5634,36.6845,59.3538,36.8533,60.1026z M37.3943,62.2026  c-0.168-0.6224-0.3445-1.2423-0.4902-1.8709C37.0594,61.0035,37.2239,61.63,37.3943,62.2026z M80.0283,28.1159  c-0.3421,8.0803-7.5101,12.4789-13.4727,15.9977c-2.7369,6.4838-5.4249,11.4688-10.9312,15.7534  c-1.8409,8.2921-9.1881,11.5992-15.395,11.811c-0.2581,0.0091-0.4518,0.0546-0.6177,0.1159  c0.1147,2.2921,2.2422,4.8531,3.7781,6.6937c0.3747,0.4561,0.7169,0.8634,0.9938,1.2055l0.0815,0.114l-0.1304-0.0162  c-1.1241-0.0326-2.5414-0.2607-3.861-1.059c-0.9123-0.5539-1.792-1.401-2.4436-2.6391c-0.2281,1.5802,0.0977,3.0627,0.5539,5.1968  c0.0783,0.3785,0.1677,0.7883,0.2586,1.2253c0.0348,0.0859,0.063,0.171,0.0998,0.2571c-0.0209-0.0216-0.0388-0.0424-0.0595-0.064  c0.0091,0.0446,0.0178,0.0837,0.0269,0.1292l-0.1141,0.0489c-1.7268-1.8246-2.9975-3.584-3.6818-5.3271  c-0.6842-1.7595-0.7982-3.5189-0.2443-5.3434c0.1409-0.4661,0.3521-0.9324,0.6002-1.3957c0.0182-0.0509,0.0326-0.101,0.0515-0.152  c-4.5615-1.3521-7.4287-5.1154-8.5039-9.9538c-6.3535-3.2256-7.787-8.3898-10.5076-14.8574  c-3.2419-2.0527-6.0277-4.3171-8.4876-6.7281c-4.6918-4.6266-7.2984-9.3511-6.3046-13.5541  c0.6679-2.8835,3.0627-6.3209,7.559-7.7056c0.1466-0.8634,0.3095-1.7268,0.4724-2.5903c-0.6679-2.8672-2.3622-11.0127-0.6353-9.856  c1.1078,0.7494,8.5039,2.0527,14.2546-0.1466c11.7458-5.1479,22.2372-4.9199,35.0093,0c5.4901,1.3195,13.1143,0.3747,13.9614-0.0652  c2.0364-1.0752,0.3258,6.8748-0.2118,10.0678c0.1466,0.8635,0.3095,1.7269,0.4725,2.5903  C79.621,18.9604,80.2075,23.9291,80.0283,28.1159z M27.4573,57.9773c-3.2908-6.5327-5.4412-13.0654-6.8422-19.6143  c-1.5476,0.3584-2.7695,0.2443-3.6655-0.3421c1.0915,3.5351,2.1993,7.0865,3.3071,10.6217  C22.179,53.4158,24.2643,57.6352,27.4573,57.9773z M36.4875,69.2223c0.7692-1.0515,1.667-2.0555,2.4713-2.9529l0.4072-0.4561  c0.5828-0.6476,1.1005-1.3206,1.4742-2.101c-1.3564-0.4159-2.6362,0.3723-3.0756,0.4818c0.0857-0.0833,0.1833-0.1583,0.2492-0.2543  c-0.0821-0.1823-0.1633-0.3832-0.2436-0.5975c1.0803-0.8002,2.3636-0.7386,3.4411-0.6599c0.0222-0.0886,0.0588-0.1659,0.077-0.2577  c0.2606-1.4173,0.0326-3.2256-1.1241-5.8322c-0.5539-1.2707-1.1567-2.3134-1.678-3.2419c-1.6982-2.9875-2.7786-4.9216-0.4355-9.7103  c-0.9673-1.2523-1.2794-2.8882-2.2525-4.137c-0.0282,0.0057-0.0544,0.0186-0.0821,0.0259c0.0556-0.0684,0.106-0.1368,0.1635-0.2051  c-2.1667,0.5213-6.4023,0.896-7.9337,0.4887c-0.0236,0.165-0.038,0.3364-0.0558,0.5055c0.0054-0.1857-0.0021-0.3676,0.007-0.5544  c-0.8635,0-1.7269,0-2.5903,0c0.1955,1.8409,0.391,3.6981,0.5865,5.5389c-0.1955,0.0489-0.391,0.0815-0.5865,0.1303  c0,0-1.3033-3.079-2.0038-2.7206c1.6454,7.5916,3.4537,15.0854,9.5628,19.484c-0.0294-0.2399-0.0371-0.4605-0.0593-0.6941  c0.0927,0.6465,0.2171,1.2924,0.3851,1.9323c0.1012,0.2374,0.2374,0.4405,0.394,0.619c-0.2558-0.2351-0.4258-0.439-0.4918-0.505  c-3.2582-1.8083-3.6329-2.7206-4.9525-4.5289C30.4258,65.049,31.5929,67.0175,36.4875,69.2223z M43.3084,78.5691  c-1.5424-1.8436-3.6674-4.3998-3.8151-6.7202c-0.0422-0.6627,0.0816-1.3048,0.4229-1.9069  c0.0792-0.1398,0.1605-0.2794,0.2644-0.4144l0.4073-0.5213c1.1028-1.4119,2.3094-2.9677,3.0941-4.7885  c0.4021-0.9331,0.6843-1.9398,0.7921-3.0296c0.1191-1.2027,0.0122-2.5115-0.41-3.9478c-0.1799-0.6121-0.4036-1.2418-0.7067-1.9022  l-0.6517-1.4011c-0.1062-0.226-0.2081-0.4436-0.3099-0.6612c-0.8093-1.7293-1.4655-3.1859-1.7856-4.2823  c-0.0723-0.2476-0.1336-0.4836-0.169-0.6931c-0.228-1.2544,0.1304-1.7106,1.564-3.5515l0.5702-0.7331  c0-0.1188-0.0166-0.2234-0.0273-0.3333c-0.0626-0.643-0.2904-1.1411-0.6244-1.475c-0.2606-0.2607-0.5864-0.4236-0.9286-0.4887  c-0.3584-0.0815-0.7168-0.0652-1.0752,0.0651c-0.4575,0.136-0.8857,0.4428-1.2157,0.9026  c-0.1047,0.1459-0.2007,0.3056-0.2831,0.4822c-0.3264,0.6308-0.595,1.2121-0.8139,1.754c-1.5623,3.8665-0.5377,5.6765,0.9769,8.3627  c0.366,0.6433,0.7619,1.3387,1.1523,2.1137c0.183,0.3633,0.3651,0.7389,0.5419,1.1445c0.668,1.5146,1.0241,2.7623,1.1589,3.8275  c0.0093,0.0736,0.0233,0.151,0.0305,0.2228c0.0031,0.031,0.0056,0.0616,0.0083,0.0923c0.0363,0.4136,0.0373,0.7984,0.0068,1.158  c-0.0175,0.2063-0.0435,0.4058-0.0803,0.5967c-0.0927,0.4799-0.2573,0.9028-0.4485,1.3055c-0.38,0.8002-0.9103,1.4871-1.5064,2.1482  l-0.4073,0.4562c-0.7923,0.8849-1.6775,1.8798-2.4382,2.9219c-0.5914,0.8101-1.0966,1.6483-1.4291,2.4879  c-0.0665,0.168-0.138,0.336-0.1891,0.5038c-0.5539,1.7757-0.4398,3.5188,0.2444,5.2457c0.6679,1.6943,1.8572,3.3885,3.5189,5.1317  c-0.0076-0.0357-0.0153-0.0688-0.0229-0.1045c-0.0599-0.2791-0.1196-0.548-0.1795-0.8177  c-0.0303-0.1364-0.0605-0.2825-0.0908-0.4136c-0.4724-2.2156-0.7982-3.7469-0.505-5.4249l0.1119-0.016l0.0021-0.0003  c0.0012,0.0024,0.0026,0.0043,0.0038,0.0067c0.6512,1.3156,1.5292,2.1774,2.4724,2.7628c0.7616,0.461,1.5604,0.7158,2.3173,0.8628  c0.4406,0.0856,0.8665,0.1403,1.2567,0.1561c0.0292,0.0012,0.0627,0.0065,0.0916,0.0074  C43.9438,79.351,43.6343,78.9763,43.3084,78.5691z M43.5528,40.497c-0.0326-3.0627-3.9913-3.861-5.3109-1.401  c-0.4783,0.9567-0.0913,2.4155,0.4034,3.4684c0.3412-0.45,0.7737-0.7561,1.2258-0.9108c0.3746-0.114,0.7819-0.1466,1.1403-0.0652  c0.3747,0.0815,0.7168,0.2607,0.9938,0.5213c0.3344,0.3344,0.5707,0.8064,0.6501,1.4128  C43.0985,42.7838,43.5097,41.4892,43.5528,40.497z M54.0116,58.7755c-1.7812,1.8784-2.9688,3.3688-5.0947,4.1547  c0.0414-0.2782,0.0793-0.567,0.1149-0.8611c6.0773-4.4185,7.8668-11.879,9.5249-19.4542c-0.7005-0.3584-2.0038,2.7043-2.0038,2.7043  c-0.1955-0.0326-0.391-0.0652-0.5865-0.114c0.1955-1.8409,0.391-3.6981,0.5865-5.5552c-0.8634,0-2.8347,0.0814-3.6981,0.0814  c0.0038,0.045,0.0055,0.086,0.0092,0.1306c-1.5516,0.3716-3.9576-0.0258-6.0857-0.5378c0.1219,0.1646,0.2167,0.3393,0.3307,0.5068  c-0.2392-0.2059-0.4771-0.3456-0.7054-0.3928c-0.9938,1.2707-1.6291,2.8509-2.6066,4.1216  c-0.9834,0.7953-1.7177,1.4172-2.2485,1.9745c-0.9453,1.2445-1.1737,1.723-0.9933,2.7498c0.2281,1.2381,1.1404,3.1931,2.2482,5.6041  l0.6679,1.4011c1.2733,2.7717,1.4042,5.1042,0.9384,7.1283c0.0955-0.2391,0.1849-0.479,0.2741-0.7188  c-0.2071,0.7772-0.4146,1.5157-0.6097,2.1758c0.0036,0.0042,0.0095,0.0067,0.0132,0.0107  c-0.0594,0.0439-0.1193,0.0883-0.1954,0.1524c-0.7866,1.9309-2.0532,3.5685-3.2063,5.05l-0.4073,0.5213  c-0.0804,0.1047-0.1394,0.2137-0.2043,0.3216C48.4545,69.3583,52.9989,63.2378,54.0116,58.7755z M64.7799,38.0208  c-0.9123,0.5864-2.1341,0.7005-3.6655,0.3421c-1.401,6.549-3.5677,13.0817-6.8422,19.6143  c3.1931-0.3421,5.2783-4.5615,7.2006-9.3347C62.5807,45.1074,63.6722,41.5559,64.7799,38.0208z M70.1886,19.8075  c0.4398-1.6454-0.0163-3.1279-1.4174-4.4474c-0.896,5.9136-2.4273,11.2082-8.455,8.4224c-1.8734,2.1993-6.0114,3.4374-7.1354-2.3459  c10.8009,8.6016,8.0966-21.2923,16.0629-8.1781c0.2444-0.1629,2.6229-4.0076,0.9937-5.4086  c-1.515,1.2218-9.351,0.8145-13.1631,0.0977c0.3747,3.2908-1.6291,3.8936-3.8773,4.8873c-2.0364,0.896-2.9324,4.9199-4.0402,8.6667  c-1.8409-13.0654,3.9913-8.7319,5.7996-14.1894c-10.9476-5.0339-21.553-3.9099-28.4441,0.0977c-0.1466,0-0.2932,0-0.4561,0.0163  c1.4499,6.1091,6.8096,1.4173,5.2783,14.5316c-1.0263-3.5026-1.3196-7.559-3.3071-8.4224c-2.2808-1.0101-4.4637-1.9387-3.975-5.8484  c-3.6818,0.7005-7.4613,2.2807-13.1469,0.1955c-0.9123,0.8471,0.8309,4.5941,1.5314,5.376  c6.9399-11.7458,7.559,19.2885,15.7208,8.1781c0.8309,5.2131-4.1705,7.3798-6.7933,2.3459  c-5.5715,4.4149-7.3961-1.8735-8.455-8.4224c-1.0915,1.01-1.5639,2.4925-1.4173,4.4474c-6.9399,1.6291-9.6117,7.2657-4.9199,13.326  c2.8998,2.9487,6.272,5.4575,10.0841,7.4776c-1.6454-2.8021-2.6066-5.6204-2.1016-8.4225c-1.1729,0-2.3459,0-3.5189,0  c1.287-1.6291,2.7858-2.965,5.6204-2.1015c0,0.8634,0,1.7106,0,2.574c3.079,2.8021,7.1843,4.1542,13.9451,4.4637  c12.0228-2.46,8.3735-2.069,20.3963,0.0651c6.2394-0.5376,10.247-2.1178,14.0265-4.5289c0-0.8634,0-1.7106,0-2.574  c2.4925-1.173,4.366-0.4725,5.6204,2.1015c-1.1729,0-2.3459,0-3.5189,0c0.4562,2.9976-0.7168,5.7344-2.1015,8.4225  c5.8322-3.3723,10.7683-6.272,11.8761-12.0717C77.7964,23.864,75.3202,20.2799,70.1886,19.8075z M16.689,15.4741  c-0.5865-0.391-1.3848-0.3095-1.9713,0.2281c-0.4561,2.1178-0.2118,5.3271,2.4274,7.1354c1.2218,0.8635,2.4274,1.4174,3.3397-0.228  c-1.3033-1.9875-1.7594-3.975-1.8409-5.9625c-1.2055,1.2381-1.0589,3.3071-1.0426,5.4901  C16.4446,20.3125,16.1839,18.1621,16.689,15.4741z M63.9654,21.2085c0.0162-2.183,0.1629-4.252-1.0427-5.5063  c-0.0814,1.9875-0.5376,3.975-1.8409,5.9625c0.9123,1.6454,2.1016,1.0915,3.3397,0.2443c2.6392-1.8246,2.8835-5.0339,2.4274-7.1354  c-0.5865-0.5539-1.3848-0.6191-1.9712-0.2281C65.3827,17.2335,65.122,19.3676,63.9654,21.2085z M49.4837,52.5172  c-0.0439,0.2018-0.0794,0.4035-0.1313,0.6053c0.0215-0.038,0.0408-0.073,0.0621-0.1108  C49.4435,52.8454,49.4582,52.6828,49.4837,52.5172z M28.9561,27.0407c-1.287,1.3685-1.1567,2.7206-0.391,4.0728  c0.391,0.6843,1.5477,0,1.9386,0c0.9124-0.1629,1.0427,0.4562,1.9387,1.1893C31.9699,30.3315,30.8133,28.5721,28.9561,27.0407z   M48.9777,32.3027c0.9123-0.7331,1.0426-1.3522,1.9387-1.1893c0.3909,0,1.5476,0.6843,1.9386,0  c0.782-1.3521,0.9123-2.7043-0.391-4.0728C50.6231,28.5721,49.4501,30.3315,48.9777,32.3027z" class="color-1" data-name="color-1"/>
</svg>